<svg width="62" height="63" viewBox="0 0 62 63" fill="none" xmlns="http://www.w3.org/2000/svg">
<path d="M31 5.35449C16.7916 5.35449 5.16663 17.1407 5.16663 31.657C5.16663 44.782 14.6216 55.6758 26.97 57.6445V39.2695H20.4083V31.657H26.97V25.8557C26.97 19.267 30.8191 15.6445 36.735 15.6445C39.5508 15.6445 42.4958 16.1432 42.4958 16.1432V22.627H39.2408C36.0375 22.627 35.03 24.6482 35.03 26.722V31.657H42.2116L41.0491 39.2695H35.03V57.6445C41.1173 56.6675 46.6606 53.5115 50.6589 48.7458C54.6571 43.9804 56.8472 37.9192 56.8333 31.657C56.8333 17.1407 45.2083 5.35449 31 5.35449Z" fill="white"/>
</svg>
