<svg width="77" height="77" viewBox="0 0 77 77" fill="none" xmlns="http://www.w3.org/2000/svg">
<path d="M49.1958 12.0312H27.8018C23.6202 12.0344 19.6107 13.697 16.6539 16.6539C13.697 19.6107 12.0344 23.6202 12.0312 27.8018V49.1958C12.0338 53.3778 13.6961 57.3879 16.653 60.3453C19.6099 63.3027 23.6198 64.9656 27.8018 64.9688H49.1958C53.3776 64.9649 57.3871 63.3018 60.3439 60.3446C63.3007 57.3873 64.9632 53.3776 64.9663 49.1958V27.8018C64.9644 23.6198 63.3023 19.6096 60.3451 16.6525C57.388 13.6953 53.3778 12.0332 49.1958 12.0312ZM59.6437 49.1958C59.6431 51.9665 58.5421 54.6237 56.5829 56.5829C54.6237 58.5421 51.9665 59.6431 49.1958 59.6437H27.8018C26.4299 59.6437 25.0714 59.3735 23.8039 58.8484C22.5365 58.3233 21.3848 57.5537 20.4149 56.5834C19.4449 55.6132 18.6755 54.4614 18.1507 53.1939C17.6259 51.9263 17.356 50.5677 17.3563 49.1958V27.8018C17.356 26.43 17.6259 25.0716 18.1508 23.8041C18.6756 22.5367 19.445 21.385 20.415 20.415C21.385 19.445 22.5367 18.6756 23.8041 18.1508C25.0716 17.6259 26.43 17.356 27.8018 17.3563H49.1958C51.9659 17.3569 54.6224 18.4576 56.5812 20.4164C58.54 22.3752 59.6407 25.0317 59.6413 27.8018L59.6437 49.1958Z" fill="white"/>
<path d="M38.5 24.8134C30.9492 24.8134 24.8132 30.9518 24.8132 38.5002C24.8132 46.0486 30.9516 52.1869 38.5 52.1869C46.0484 52.1869 52.1867 46.0486 52.1867 38.5002C52.1867 30.9518 46.0508 24.8134 38.5 24.8134ZM38.5 46.8619C36.2823 46.8622 34.1554 45.9816 32.587 44.4137C31.0187 42.8458 30.1374 40.719 30.1371 38.5014C30.1367 36.2837 31.0174 34.1567 32.5853 32.5884C34.1532 31.02 36.2799 30.1388 38.4976 30.1385C40.7152 30.1381 42.8422 31.0188 44.4106 32.5867C45.9789 34.1546 46.8602 36.2813 46.8605 38.499C46.8608 40.7166 45.9802 42.8436 44.4123 44.4119C42.8444 45.9803 40.7176 46.8616 38.5 46.8619ZM52.2156 21.6348C52.8641 21.6352 53.4978 21.8279 54.0368 22.1885C54.5758 22.5491 54.9958 23.0613 55.2437 23.6605C55.4917 24.2597 55.5564 24.9189 55.4298 25.5549C55.3032 26.1909 54.9908 26.7751 54.5323 27.2336C54.0738 27.6921 53.4896 28.0044 52.8536 28.1311C52.2177 28.2577 51.5584 28.1929 50.9592 27.945C50.36 27.6971 49.8478 27.2771 49.4872 26.7381C49.1267 26.1991 48.934 25.5654 48.9335 24.9169C48.9335 23.1074 50.1607 21.6348 52.2156 21.6348Z" fill="white"/>
</svg>
