<svg width="212" height="102" viewBox="0 0 212 102" fill="none" xmlns="http://www.w3.org/2000/svg">
<path d="M30.0208 7.968V62H22.4088V7.968H3.48875V1.412H49.2048L48.4128 7.968H30.0208ZM99.9464 45.236C99.9464 48.6973 99.081 51.7773 97.3504 54.476C95.6197 57.1453 93.1117 59.2427 89.8264 60.768C86.541 62.264 82.537 63.012 77.8144 63.012C73.385 63.012 69.3664 62.3373 65.7584 60.988C62.1797 59.6387 59.1144 57.732 56.5624 55.268L61.0944 50.164C63.2064 52.1293 65.6264 53.6987 68.3544 54.872C71.0824 56.016 74.2797 56.588 77.9464 56.588C80.4104 56.588 82.713 56.192 84.8544 55.4C86.9957 54.5787 88.7264 53.3467 90.0464 51.704C91.3664 50.032 92.0264 47.92 92.0264 45.368C92.0264 43.4027 91.645 41.7307 90.8824 40.352C90.1197 38.9733 88.7704 37.756 86.8344 36.7C84.8984 35.6147 82.1997 34.5587 78.7384 33.532C74.749 32.3587 71.2877 31.0387 68.3544 29.572C65.4504 28.076 63.1917 26.2427 61.5784 24.072C59.9944 21.9013 59.2024 19.2173 59.2024 16.02C59.2024 12.9987 60.0384 10.3147 61.7104 7.968C63.3824 5.62133 65.685 3.788 68.6184 2.468C71.581 1.11866 74.9837 0.443998 78.8264 0.443998C83.021 0.443998 86.6584 1.04533 89.7384 2.248C92.8477 3.42133 95.6637 5.12266 98.1864 7.352L93.6984 12.324C91.5277 10.388 89.1957 8.99466 86.7024 8.144C84.209 7.264 81.6717 6.824 79.0904 6.824C76.8904 6.824 74.8664 7.16133 73.0184 7.836C71.1997 8.48133 69.733 9.464 68.6184 10.784C67.533 12.0747 66.9904 13.732 66.9904 15.756C66.9904 17.4867 67.4597 18.9827 68.3984 20.244C69.337 21.5053 70.921 22.664 73.1504 23.72C75.3797 24.7467 78.4157 25.832 82.2584 26.976C85.397 27.8853 88.301 29.0293 90.9704 30.408C93.669 31.7573 95.8397 33.6053 97.4824 35.952C99.125 38.2693 99.9464 41.364 99.9464 45.236ZM149.236 1.412V7.528H135.772V55.884H149.236V62H114.564V55.884H128.028V7.528H114.564V1.412H149.236ZM210.67 1.412L201.43 62H191.398L184.446 16.284L177.45 62H167.198L158.662 1.412H166.318L172.786 53.596L180.046 8.452H189.418L196.326 53.596L203.586 1.412H210.67ZM9.42031 101L2.14531 82.835C2.15531 83.065 2.17531 83.45 2.20531 83.99C2.24531 84.52 2.28531 85.155 2.32531 85.895C2.37531 86.625 2.41531 87.4 2.44531 88.22C2.47531 89.04 2.49031 89.85 2.49031 90.65V101H0.0753127V80.345H3.60031L10.9953 98.585C10.9853 98.295 10.9503 97.765 10.8903 96.995C10.8303 96.215 10.7753 95.275 10.7253 94.175C10.6753 93.075 10.6503 91.91 10.6503 90.68V80.345H13.0653V101H9.42031ZM20.5536 93.995C20.6036 95.215 20.8386 96.215 21.2586 96.995C21.6786 97.765 22.2336 98.335 22.9236 98.705C23.6136 99.065 24.3636 99.245 25.1736 99.245C25.9836 99.245 26.7136 99.125 27.3636 98.885C28.0236 98.645 28.6986 98.29 29.3886 97.82L30.5736 99.485C29.8336 100.065 28.9886 100.52 28.0386 100.85C27.0986 101.18 26.1336 101.345 25.1436 101.345C23.6136 101.345 22.3086 101 21.2286 100.31C20.1486 99.62 19.3236 98.66 18.7536 97.43C18.1936 96.19 17.9136 94.755 17.9136 93.125C17.9136 91.525 18.1986 90.105 18.7686 88.865C19.3386 87.625 20.1386 86.65 21.1686 85.94C22.1986 85.23 23.4136 84.875 24.8136 84.875C26.1436 84.875 27.2886 85.19 28.2486 85.82C29.2086 86.44 29.9436 87.33 30.4536 88.49C30.9736 89.64 31.2336 91.015 31.2336 92.615C31.2336 92.885 31.2286 93.14 31.2186 93.38C31.2086 93.61 31.1936 93.815 31.1736 93.995H20.5536ZM24.8436 86.945C23.6736 86.945 22.6936 87.36 21.9036 88.19C21.1236 89.02 20.6786 90.305 20.5686 92.045H28.8036C28.7736 90.355 28.4036 89.085 27.6936 88.235C26.9836 87.375 26.0336 86.945 24.8436 86.945ZM36.7119 101V99.065H39.1719V87.14H36.7119V85.205H41.0919L41.5569 88.94C42.1669 87.64 42.9069 86.635 43.7769 85.925C44.6469 85.215 45.7969 84.86 47.2269 84.86C47.6669 84.86 48.0569 84.895 48.3969 84.965C48.7469 85.025 49.1019 85.105 49.4619 85.205L48.7269 87.455C48.3969 87.365 48.0969 87.3 47.8269 87.26C47.5569 87.21 47.2469 87.185 46.8969 87.185C45.6869 87.185 44.6469 87.615 43.7769 88.475C42.9069 89.335 42.2119 90.635 41.6919 92.375V99.065H44.9019V101H36.7119ZM47.0319 90.545V87.11L47.2869 85.205H49.4619L49.1019 90.545H47.0319ZM67.7202 85.205L61.9752 101H59.0502L53.3502 85.205H56.0202L60.5952 98.705L65.1102 85.205H67.7202ZM74.5184 93.995C74.5684 95.215 74.8034 96.215 75.2234 96.995C75.6434 97.765 76.1984 98.335 76.8884 98.705C77.5784 99.065 78.3284 99.245 79.1384 99.245C79.9484 99.245 80.6784 99.125 81.3284 98.885C81.9884 98.645 82.6634 98.29 83.3534 97.82L84.5384 99.485C83.7984 100.065 82.9534 100.52 82.0034 100.85C81.0634 101.18 80.0984 101.345 79.1084 101.345C77.5784 101.345 76.2734 101 75.1934 100.31C74.1134 99.62 73.2884 98.66 72.7184 97.43C72.1584 96.19 71.8784 94.755 71.8784 93.125C71.8784 91.525 72.1634 90.105 72.7334 88.865C73.3034 87.625 74.1034 86.65 75.1334 85.94C76.1634 85.23 77.3784 84.875 78.7784 84.875C80.1084 84.875 81.2534 85.19 82.2134 85.82C83.1734 86.44 83.9084 87.33 84.4184 88.49C84.9384 89.64 85.1984 91.015 85.1984 92.615C85.1984 92.885 85.1934 93.14 85.1834 93.38C85.1734 93.61 85.1584 93.815 85.1384 93.995H74.5184ZM78.8084 86.945C77.6384 86.945 76.6584 87.36 75.8684 88.19C75.0884 89.02 74.6434 90.305 74.5334 92.045H82.7684C82.7384 90.355 82.3684 89.085 81.6584 88.235C80.9484 87.375 79.9984 86.945 78.8084 86.945ZM116.24 80.015C117.59 80.015 118.72 80.185 119.63 80.525C120.54 80.865 121.405 81.365 122.225 82.025L120.77 83.72C120.12 83.17 119.43 82.78 118.7 82.55C117.98 82.31 117.225 82.19 116.435 82.19C115.305 82.19 114.26 82.46 113.3 83C112.34 83.53 111.565 84.415 110.975 85.655C110.395 86.885 110.105 88.555 110.105 90.665C110.105 92.715 110.38 94.36 110.93 95.6C111.49 96.84 112.245 97.735 113.195 98.285C114.145 98.835 115.205 99.11 116.375 99.11C117.535 99.11 118.485 98.935 119.225 98.585C119.975 98.235 120.625 97.835 121.175 97.385L122.525 99.095C121.895 99.705 121.075 100.235 120.065 100.685C119.055 101.125 117.815 101.345 116.345 101.345C114.675 101.345 113.16 100.935 111.8 100.115C110.45 99.295 109.38 98.095 108.59 96.515C107.8 94.925 107.405 92.975 107.405 90.665C107.405 88.345 107.805 86.395 108.605 84.815C109.415 83.235 110.49 82.04 111.83 81.23C113.18 80.42 114.65 80.015 116.24 80.015ZM128.483 93.995C128.533 95.215 128.768 96.215 129.188 96.995C129.608 97.765 130.163 98.335 130.853 98.705C131.543 99.065 132.293 99.245 133.103 99.245C133.913 99.245 134.643 99.125 135.293 98.885C135.953 98.645 136.628 98.29 137.318 97.82L138.503 99.485C137.763 100.065 136.918 100.52 135.968 100.85C135.028 101.18 134.063 101.345 133.073 101.345C131.543 101.345 130.238 101 129.158 100.31C128.078 99.62 127.253 98.66 126.683 97.43C126.123 96.19 125.843 94.755 125.843 93.125C125.843 91.525 126.128 90.105 126.698 88.865C127.268 87.625 128.068 86.65 129.098 85.94C130.128 85.23 131.343 84.875 132.743 84.875C134.073 84.875 135.218 85.19 136.178 85.82C137.138 86.44 137.873 87.33 138.383 88.49C138.903 89.64 139.163 91.015 139.163 92.615C139.163 92.885 139.158 93.14 139.148 93.38C139.138 93.61 139.123 93.815 139.103 93.995H128.483ZM132.773 86.945C131.603 86.945 130.623 87.36 129.833 88.19C129.053 89.02 128.608 90.305 128.498 92.045H136.733C136.703 90.355 136.333 89.085 135.623 88.235C134.913 87.375 133.963 86.945 132.773 86.945ZM144.492 101V85.205H146.637L146.832 87.395C147.472 86.585 148.272 85.965 149.232 85.535C150.202 85.095 151.142 84.875 152.052 84.875C153.602 84.875 154.727 85.285 155.427 86.105C156.137 86.925 156.492 88.065 156.492 89.525V101H153.972V91.385C153.972 90.305 153.912 89.435 153.792 88.775C153.672 88.105 153.422 87.62 153.042 87.32C152.662 87.01 152.072 86.855 151.272 86.855C150.652 86.855 150.067 86.99 149.517 87.26C148.977 87.53 148.492 87.87 148.062 88.28C147.642 88.68 147.292 89.085 147.012 89.495V101H144.492ZM175.02 100.205C174.48 100.565 173.825 100.845 173.055 101.045C172.285 101.245 171.53 101.345 170.79 101.345C169.09 101.345 167.78 100.9 166.86 100.01C165.94 99.12 165.48 97.975 165.48 96.575V87.155H161.85V85.205H165.48V81.62L168 81.32V85.205H173.46L173.16 87.155H168V96.545C168 97.425 168.23 98.095 168.69 98.555C169.16 99.015 169.935 99.245 171.015 99.245C171.605 99.245 172.15 99.175 172.65 99.035C173.15 98.895 173.615 98.715 174.045 98.495L175.02 100.205ZM182.448 93.995C182.498 95.215 182.733 96.215 183.153 96.995C183.573 97.765 184.128 98.335 184.818 98.705C185.508 99.065 186.258 99.245 187.068 99.245C187.878 99.245 188.608 99.125 189.258 98.885C189.918 98.645 190.593 98.29 191.283 97.82L192.468 99.485C191.728 100.065 190.883 100.52 189.933 100.85C188.993 101.18 188.028 101.345 187.038 101.345C185.508 101.345 184.203 101 183.123 100.31C182.043 99.62 181.218 98.66 180.648 97.43C180.088 96.19 179.808 94.755 179.808 93.125C179.808 91.525 180.093 90.105 180.663 88.865C181.233 87.625 182.033 86.65 183.063 85.94C184.093 85.23 185.308 84.875 186.708 84.875C188.038 84.875 189.183 85.19 190.143 85.82C191.103 86.44 191.838 87.33 192.348 88.49C192.868 89.64 193.128 91.015 193.128 92.615C193.128 92.885 193.123 93.14 193.113 93.38C193.103 93.61 193.088 93.815 193.068 93.995H182.448ZM186.738 86.945C185.568 86.945 184.588 87.36 183.798 88.19C183.018 89.02 182.573 90.305 182.463 92.045H190.698C190.668 90.355 190.298 89.085 189.588 88.235C188.878 87.375 187.928 86.945 186.738 86.945ZM198.606 101V99.065H201.066V87.14H198.606V85.205H202.986L203.451 88.94C204.061 87.64 204.801 86.635 205.671 85.925C206.541 85.215 207.691 84.86 209.121 84.86C209.561 84.86 209.951 84.895 210.291 84.965C210.641 85.025 210.996 85.105 211.356 85.205L210.621 87.455C210.291 87.365 209.991 87.3 209.721 87.26C209.451 87.21 209.141 87.185 208.791 87.185C207.581 87.185 206.541 87.615 205.671 88.475C204.801 89.335 204.106 90.635 203.586 92.375V99.065H206.796V101H198.606ZM208.926 90.545V87.11L209.181 85.205H211.356L210.996 90.545H208.926Z" fill="#FFFCF2"/>
</svg>
