<svg width="53" height="43" viewBox="0 0 53 43" fill="none" xmlns="http://www.w3.org/2000/svg">
<g clip-path="url(#clip0_414_474)">
<path d="M34.7819 3.30769C37.5175 3.30769 40.6213 4.386 42.3607 6.18208C44.5232 5.76531 46.5641 5.00288 48.3984 3.94608C47.6903 6.09773 46.1792 7.90373 44.2166 9.04488C46.1376 8.81831 47.9769 8.32712 49.6813 7.59115C48.4051 9.4385 46.794 11.0642 44.9347 12.3658C44.9514 12.7594 44.9614 13.1563 44.9614 13.5533C44.9614 25.7372 35.7282 39.6923 18.2248 39.6923C12.8535 39.6923 7.50883 38.2584 3.30208 35.642C4.04514 35.7313 4.80318 35.7743 5.56956 35.7743C10.0279 35.7743 14.1313 34.3008 17.3918 31.8233C13.2233 31.7522 9.708 29.0845 8.50179 25.4246C9.07991 25.5304 9.67968 25.59 10.2928 25.59C11.1558 25.59 12.0005 25.4792 12.7968 25.2658C8.44348 24.424 5.16472 20.6962 5.16472 16.2292C5.16472 16.1862 5.16472 16.1482 5.16472 16.1085C6.44923 16.7998 7.91368 17.2165 9.47476 17.2662C6.92072 15.6073 5.24302 12.7908 5.24302 9.59065C5.24302 7.90042 5.71118 6.31438 6.5292 4.95823C11.2208 10.53 18.2348 14.2032 26.1451 14.5902C25.9802 13.9155 25.8952 13.2043 25.8952 12.4915C25.8952 7.39765 29.5239 3.30769 34.7819 3.30769ZM49.6813 7.59115H49.6896H49.6813ZM34.7819 0C28.3776 0 23.4245 4.55304 22.6814 10.836C17.3684 9.76596 12.5353 6.95277 9.06324 2.82973C8.43182 2.07888 7.50217 1.65054 6.5292 1.65054C6.44257 1.65054 6.35593 1.65385 6.2693 1.66046C5.20303 1.74481 4.2434 2.33688 3.69194 3.25146C2.54071 5.16331 1.93094 7.35465 1.93094 9.59065C1.93094 11.0808 2.20083 12.5345 2.70731 13.8923C2.16585 14.491 1.8543 15.2782 1.8543 16.1085V16.2292C1.8543 19.4691 3.13548 22.4741 5.26468 24.7283C5.14306 25.2939 5.16971 25.891 5.35631 26.4582C6.0927 28.6909 7.42886 30.6127 9.16154 32.078C7.99698 32.336 6.79577 32.4667 5.56956 32.4667C4.92147 32.4667 4.29338 32.4303 3.70193 32.3575C3.56698 32.3426 3.4337 32.3343 3.30042 32.3343C1.91261 32.3343 0.651418 33.2059 0.17993 34.5422C-0.336542 36.0042 0.233243 37.63 1.55274 38.4503C6.27096 41.3842 12.1921 43 18.2248 43C29.6188 43 36.6945 37.7788 40.623 33.3994C45.3879 28.0889 48.1602 21.0336 48.2685 13.9833C49.8129 12.7048 51.1757 11.2296 52.3303 9.57908C52.7484 9.02669 52.9967 8.33704 52.9967 7.59115C52.9967 6.46488 52.4352 5.47092 51.5772 4.87223C51.9487 3.59877 51.5222 2.21946 50.4859 1.37765C49.8812 0.888115 49.1415 0.638385 48.3967 0.638385C47.8286 0.638385 47.2572 0.783923 46.7424 1.08162C45.6344 1.72 44.4499 2.22277 43.202 2.58331C40.9096 0.979077 37.7991 0 34.7819 0Z" fill="white"/>
</g>
<defs>
<clipPath id="clip0_414_474">
<rect width="53" height="43" fill="white"/>
</clipPath>
</defs>
</svg>
