<svg width="225" height="225" viewBox="0 0 225 225" fill="none" xmlns="http://www.w3.org/2000/svg">
<circle cx="112.5" cy="112.5" r="112.5" fill="#33415C"/>
<g clip-path="url(#clip0_7_1155)">
<path d="M85.0173 51.584C87.1119 42.7437 81.6435 33.8791 72.8031 31.7845C63.9628 29.6898 55.0983 35.1583 53.0036 43.9986C50.909 52.8389 56.3774 61.7035 65.2177 63.7981C74.0581 65.8928 82.9226 60.4243 85.0173 51.584Z" fill="#6C5164"/>
<path d="M43.7702 47.84C43.7702 50.26 41.8102 52.23 39.3802 52.23C36.9502 52.23 34.9902 50.27 34.9902 47.84C34.9902 45.41 36.9502 43.45 39.3802 43.45C41.8102 43.45 43.7702 45.41 43.7702 47.84Z" fill="#6C5164"/>
<path d="M181.681 47.84C181.681 50.26 183.641 52.23 186.071 52.23C188.501 52.23 190.461 50.27 190.461 47.84C190.461 45.41 188.501 43.45 186.071 43.45C183.641 43.45 181.681 45.41 181.681 47.84Z" fill="#6C5164"/>
<path d="M156.44 64.29C165.525 64.29 172.89 56.9251 172.89 47.84C172.89 38.7549 165.525 31.39 156.44 31.39C147.355 31.39 139.99 38.7549 139.99 47.84C139.99 56.9251 147.355 64.29 156.44 64.29Z" fill="#6C5164"/>
<path d="M39.3906 47.84L68.8406 52.52V47.84V46.62V43.45L39.3906 47.84Z" fill="#6C5164"/>
<path d="M186.07 47.84L156.61 52.52V47.84V46.62V43.45L186.07 47.84Z" fill="#6C5164"/>
<path d="M128.69 77.37H96.75V88.38H128.69V77.37Z" fill="#19A8A8"/>
<path d="M128.69 77.37H96.75V83.19H128.69V77.37Z" fill="#6C5164"/>
<path d="M121.58 79.31H103.87C86.85 79.31 72.29 67.08 69.35 50.32L66.41 33.58C65.53 28.58 69.38 24 74.45 24H151.01C156.09 24 159.93 28.58 159.05 33.58L156.11 50.32C153.16 67.08 138.6 79.31 121.58 79.31Z" fill="#82C498"/>
<path d="M104.17 46.8C104.17 51.96 99.9797 56.15 94.8197 56.15C89.6597 56.15 85.4697 51.96 85.4697 46.8C85.4697 41.64 89.6597 37.45 94.8197 37.45C99.9797 37.45 104.17 41.64 104.17 46.8Z" fill="white"/>
<path d="M113.9 63.56C110.58 63.56 107.88 60.86 107.88 57.54C107.88 56.97 108.34 56.51 108.91 56.51C109.48 56.51 109.94 56.97 109.94 57.54C109.94 59.73 111.72 61.51 113.91 61.51C116.1 61.51 117.88 59.73 117.88 57.54C117.88 56.97 118.34 56.51 118.91 56.51C119.48 56.51 119.94 56.97 119.94 57.54C119.94 60.86 117.24 63.56 113.92 63.56H113.9Z" fill="white"/>
<path d="M139.99 46.8C139.99 51.96 135.8 56.15 130.64 56.15C125.48 56.15 121.29 51.96 121.29 46.8C121.29 41.64 125.48 37.45 130.64 37.45C135.8 37.45 139.99 41.64 139.99 46.8Z" fill="white"/>
<path d="M169.5 88.38H55.9502V201.93H169.5V88.38Z" fill="#82C498"/>
<path d="M76.3298 122.38C76.3298 124.53 74.5898 126.27 72.4398 126.27C70.2898 126.27 68.5498 124.53 68.5498 122.38C68.5498 120.23 70.2898 118.49 72.4398 118.49C74.5898 118.49 76.3298 120.23 76.3298 122.38Z" fill="#FBBE51"/>
<path d="M89.9402 122.38C89.9402 124.53 88.2002 126.27 86.0502 126.27C83.9002 126.27 82.1602 124.53 82.1602 122.38C82.1602 120.23 83.9002 118.49 86.0502 118.49C88.2002 118.49 89.9402 120.23 89.9402 122.38Z" fill="#19A8A8"/>
<path d="M103.55 122.38C103.55 124.53 101.81 126.27 99.6595 126.27C97.5095 126.27 95.7695 124.53 95.7695 122.38C95.7695 120.23 97.5095 118.49 99.6595 118.49C101.81 118.49 103.55 120.23 103.55 122.38Z" fill="#DD5668"/>
<path d="M161.74 118.59H120.03V131.34H161.74V118.59Z" fill="#53B581"/>
<path d="M169.5 110.39H55.9502V112.33H169.5V110.39Z" fill="#53B581"/>
<path d="M113.69 111.37H111.75V201.94H113.69V111.37Z" fill="#53B581"/>
<path d="M123.79 46.82L137.48 46.88" stroke="#6C5164" stroke-width="2" stroke-miterlimit="10"/>
<path d="M87.9697 46.79L101.66 46.85" stroke="#6C5164" stroke-width="2" stroke-miterlimit="10"/>
</g>
<defs>
<clipPath id="clip0_7_1155">
<rect width="155.45" height="177.93" fill="white" transform="translate(35 24)"/>
</clipPath>
</defs>
</svg>
