<svg width="225" height="225" viewBox="0 0 225 225" fill="none" xmlns="http://www.w3.org/2000/svg">
<circle cx="112.5" cy="112.5" r="112.5" fill="#33415C"/>
<g clip-path="url(#clip0_7_1072)">
<path d="M154.49 204.78H72.26L55 80.65H171.75L154.49 204.78Z" fill="#EF8037"/>
<path d="M68.75 179.47H142.14V80.65H143.87V179.47H158.01L157.77 181.2H68.98L68.75 179.47Z" fill="#D66A2C"/>
<path d="M147.57 71.15H79.5099L70.8799 22H156.2L147.57 71.15Z" fill="#EF8037"/>
<path d="M127.74 71.15H99.3496V80.93H127.74V71.15Z" fill="#19A8A8"/>
<path d="M127.74 71.15H99.3496V76.33H127.74V71.15Z" fill="#6C5164"/>
<path d="M106.58 48.3C106.58 52.89 103.17 56.61 98.9704 56.61C94.7704 56.61 91.3604 52.89 91.3604 48.3C91.3604 43.71 94.7704 39.99 98.9704 39.99C103.17 39.99 106.58 43.71 106.58 48.3Z" fill="white"/>
<path d="M103.03 49.17C102.55 49.17 102.16 48.78 102.16 48.3C102.16 46.33 100.73 44.73 98.97 44.73C97.21 44.73 95.78 46.33 95.78 48.3C95.78 48.78 95.39 49.17 94.91 49.17C94.43 49.17 94.04 48.78 94.04 48.3C94.04 45.37 96.26 42.99 98.98 42.99C101.7 42.99 103.92 45.37 103.92 48.3C103.92 48.78 103.53 49.17 103.05 49.17H103.03Z" fill="#6C5164"/>
<path d="M135.73 48.3C135.73 52.89 132.32 56.61 128.12 56.61C123.92 56.61 120.51 52.89 120.51 48.3C120.51 43.71 123.92 39.99 128.12 39.99C132.33 39.99 135.73 43.71 135.73 48.3Z" fill="white"/>
<path d="M132.25 49.17C131.77 49.17 131.38 48.78 131.38 48.3C131.38 46.33 129.95 44.73 128.19 44.73C126.43 44.73 125 46.33 125 48.3C125 48.78 124.61 49.17 124.13 49.17C123.65 49.17 123.26 48.78 123.26 48.3C123.26 45.37 125.48 42.99 128.2 42.99C130.92 42.99 133.14 45.37 133.14 48.3C133.14 48.78 132.75 49.17 132.27 49.17H132.25Z" fill="#6C5164"/>
<path d="M113.21 97.8H72.6104V128.01H113.21V97.8Z" fill="#D66A2C"/>
<path d="M127.77 137.88C130.83 137.88 133.3 140.36 133.3 143.41C133.3 146.46 130.82 148.94 127.77 148.94C124.72 148.94 122.24 146.46 122.24 143.41C122.24 140.36 124.72 137.88 127.77 137.88Z" fill="#FCE16B"/>
<path d="M127.77 119.2C130.83 119.2 133.3 121.68 133.3 124.73C133.3 127.78 130.82 130.26 127.77 130.26C124.72 130.26 122.24 127.78 122.24 124.73C122.24 121.68 124.72 119.2 127.77 119.2Z" fill="#19A8A8"/>
<path d="M127.77 100.52C130.83 100.52 133.3 103 133.3 106.05C133.3 109.1 130.82 111.58 127.77 111.58C124.72 111.58 122.24 109.1 122.24 106.05C122.24 103 124.72 100.52 127.77 100.52Z" fill="white"/>
<path d="M80.7596 173.64C80.7596 174.22 80.2896 174.7 79.6996 174.7C79.1096 174.7 78.6396 174.23 78.6396 173.64C78.6396 173.05 79.1096 172.58 79.6996 172.58C80.2796 172.58 80.7596 173.05 80.7596 173.64Z" fill="#D66A2C"/>
<path d="M99.3993 173.64C99.3993 174.22 98.9293 174.7 98.3393 174.7C97.7493 174.7 97.2793 174.23 97.2793 173.64C97.2793 173.05 97.7493 172.58 98.3393 172.58C98.9293 172.58 99.3993 173.05 99.3993 173.64Z" fill="#D66A2C"/>
<path d="M118.029 173.64C118.029 174.22 117.559 174.7 116.969 174.7C116.379 174.7 115.909 174.23 115.909 173.64C115.909 173.05 116.379 172.58 116.969 172.58C117.559 172.58 118.029 173.05 118.029 173.64Z" fill="#D66A2C"/>
<path d="M136.66 173.64C136.66 174.22 136.19 174.7 135.6 174.7C135.01 174.7 134.54 174.23 134.54 173.64C134.54 173.05 135.01 172.58 135.6 172.58C136.18 172.58 136.66 173.05 136.66 173.64Z" fill="#D66A2C"/>
<path d="M106.72 61.33L120.4 61.39" stroke="#6C5164" stroke-width="2" stroke-miterlimit="10"/>
</g>
<defs>
<clipPath id="clip0_7_1072">
<rect width="116.75" height="182.78" fill="white" transform="translate(55 22)"/>
</clipPath>
</defs>
</svg>
