<svg width="225" height="225" viewBox="0 0 225 225" fill="none" xmlns="http://www.w3.org/2000/svg">
<circle cx="112.5" cy="112.5" r="112.5" fill="#33415C"/>
<g clip-path="url(#clip0_7_832)">
<path d="M85.3096 99.21L94.9096 90.87L85.3096 82.58H141.92L132.32 90.87L141.92 99.21H85.3096Z" fill="#6C5164"/>
<path d="M103.43 58.23C103.43 63.64 99.0496 68.02 93.6396 68.02C88.2296 68.02 83.8496 63.64 83.8496 58.23C83.8496 52.82 88.2296 48.44 93.6396 48.44C99.0396 48.44 103.43 52.82 103.43 58.23Z" fill="#FCE16B"/>
<path d="M140.92 58.23C140.92 63.64 136.54 68.02 131.13 68.02C125.72 68.02 121.34 63.64 121.34 58.23C121.34 52.82 125.72 48.44 131.13 48.44C136.54 48.44 140.92 52.82 140.92 58.23Z" fill="#FCE16B"/>
<path d="M83.5931 61.8662C85.2122 54.1363 80.2584 46.5574 72.5285 44.9383C64.7985 43.3192 57.2197 48.273 55.6006 56.0029C53.9815 63.7329 58.9353 71.3117 66.6652 72.9308C74.3951 74.5499 81.974 69.5961 83.5931 61.8662Z" fill="#6C5164"/>
<path d="M47.6298 58.95C47.6298 61.06 45.9198 62.76 43.8198 62.76C41.7198 62.76 40.0098 61.05 40.0098 58.95C40.0098 56.85 41.7198 55.14 43.8198 55.14C45.9198 55.14 47.6298 56.85 47.6298 58.95Z" fill="#6C5164"/>
<path d="M177.689 58.95C177.689 61.06 179.399 62.76 181.499 62.76C183.599 62.76 185.309 61.05 185.309 58.95C185.309 56.85 183.599 55.14 181.499 55.14C179.399 55.14 177.689 56.85 177.689 58.95Z" fill="#6C5164"/>
<path d="M167.31 67.4203C171.967 61.0423 170.573 52.0961 164.195 47.4383C157.817 42.7806 148.871 44.1751 144.213 50.5531C139.555 56.9311 140.95 65.8773 147.328 70.5351C153.706 75.1928 162.652 73.7983 167.31 67.4203Z" fill="#6C5164"/>
<path d="M43.8096 58.95L69.4296 63.02V58.95V57.89V55.13L43.8096 58.95Z" fill="#6C5164"/>
<path d="M181.5 58.95L155.88 63.02V58.95V57.89V55.13L181.5 58.95Z" fill="#6C5164"/>
<path d="M148.28 83.46H77.0401C72.9201 83.46 69.5801 80.12 69.5801 76V40.46C69.5801 36.34 72.9201 33 77.0401 33H148.28C152.4 33 155.74 36.34 155.74 40.46V76C155.74 80.12 152.4 83.46 148.28 83.46Z" fill="#DD5668"/>
<path d="M103.21 56.74C103.21 62.15 98.8299 66.53 93.4199 66.53C88.0099 66.53 83.6299 62.15 83.6299 56.74C83.6299 51.33 88.0099 46.95 93.4199 46.95C98.8199 46.95 103.21 51.33 103.21 56.74Z" fill="white"/>
<path d="M113.4 66.92C116.88 66.92 119.7 69.75 119.7 73.22C119.7 73.81 119.22 74.29 118.63 74.29C118.04 74.29 117.56 73.81 117.56 73.22C117.56 70.93 115.7 69.07 113.4 69.07C111.1 69.07 109.25 70.93 109.25 73.22C109.25 73.81 108.77 74.29 108.18 74.29C107.59 74.29 107.11 73.81 107.11 73.22C107.11 69.75 109.94 66.92 113.41 66.92H113.4Z" fill="#6C5164"/>
<path d="M140.7 56.74C140.7 62.15 136.32 66.53 130.91 66.53C125.5 66.53 121.12 62.15 121.12 56.74C121.12 51.33 125.5 46.95 130.91 46.95C136.32 46.95 140.7 51.33 140.7 56.74Z" fill="white"/>
<path d="M61.2598 162.41H163.73L171.41 98.79H53.5898L61.2598 162.41Z" fill="#DD5668"/>
<path d="M61.2598 162.41H163.73L155.52 201.08H69.4798L61.2598 162.41Z" fill="#C6485A"/>
<path d="M132.08 98.79H130.05V162.41H132.08V98.79Z" fill="#C6485A"/>
<path d="M157.87 105.23H142.51V137.36H157.87V105.23Z" fill="#C6485A"/>
<path d="M72.7197 118.33H115.19C117 118.33 118.48 119.8 118.48 121.62C118.48 123.43 117.01 124.91 115.19 124.91H72.7197C70.9097 124.91 69.4297 123.44 69.4297 121.62C69.4297 119.81 70.8997 118.33 72.7197 118.33Z" fill="#C6485A"/>
<path d="M106.38 121.62C106.38 117.44 109.77 114.05 113.95 114.05C118.13 114.05 121.52 117.44 121.52 121.62C121.52 125.8 118.13 129.19 113.95 129.19C109.77 129.19 106.38 125.8 106.38 121.62Z" fill="#6C5164"/>
<path d="M87.6504 52.19L98.5404 60.47" stroke="#6C5164" stroke-width="2" stroke-miterlimit="10"/>
<path d="M136.58 52.19L125.69 60.47" stroke="#6C5164" stroke-width="2" stroke-miterlimit="10"/>
</g>
<defs>
<clipPath id="clip0_7_832">
<rect width="145.31" height="168.08" fill="white" transform="translate(40 33)"/>
</clipPath>
</defs>
</svg>
