<svg width="225" height="225" viewBox="0 0 225 225" fill="none" xmlns="http://www.w3.org/2000/svg">
<circle cx="112.5" cy="112.5" r="112.5" fill="#33415C"/>
<g clip-path="url(#clip0_7_947)">
<path d="M126.567 76.6038H98.4238V84.4174H126.567V76.6038Z" fill="#6C5164"/>
<path d="M105.973 60.3346C105.973 64.3589 102.719 67.6146 98.6955 67.6146C94.6725 67.6146 91.418 64.3589 91.418 60.3346C91.418 56.3102 94.6725 53.0546 98.6955 53.0546C102.719 53.0546 105.973 56.3102 105.973 60.3346Z" fill="#FCE16B"/>
<path d="M133.844 60.3346C133.844 64.3589 130.59 67.6146 126.567 67.6146C122.544 67.6146 119.289 64.3589 119.289 60.3346C119.289 56.3102 122.544 53.0546 126.567 53.0546C130.59 53.0546 133.844 56.3102 133.844 60.3346Z" fill="#FCE16B"/>
<path d="M75.5339 39.8421H69.2236L73.5811 70.7708L75.5339 39.8421Z" fill="#6C5164"/>
<path d="M149.467 39.8421H155.777L151.41 70.7708L149.467 39.8421Z" fill="#6C5164"/>
<path d="M151.347 34H73.6445V76.6038H151.347V34Z" fill="#9E63A5"/>
<path d="M105.973 57.0066C105.973 61.031 102.719 64.2866 98.6955 64.2866C94.6725 64.2866 91.418 61.031 91.418 57.0066C91.418 52.9823 94.6725 49.7266 98.6955 49.7266C102.719 49.7266 105.973 52.9913 105.973 57.0066Z" fill="white"/>
<path d="M113.63 64.567C116.216 64.6483 118.25 66.8188 118.16 69.4052C118.141 69.8484 117.78 70.192 117.337 70.1739C116.894 70.1558 116.55 69.7941 116.568 69.351C116.623 67.6508 115.285 66.2129 113.576 66.1586C111.867 66.1044 110.439 67.4428 110.385 69.152C110.367 69.5951 110.005 69.9388 109.562 69.9207C109.119 69.9026 108.776 69.5409 108.794 69.0977C108.875 66.5113 111.045 64.4765 113.63 64.567Z" fill="white"/>
<path d="M133.844 57.0066C133.844 61.031 130.59 64.2866 126.567 64.2866C122.544 64.2866 119.289 61.031 119.289 57.0066C119.289 52.9823 122.544 49.7266 126.567 49.7266C130.59 49.7266 133.844 52.9913 133.844 57.0066Z" fill="white"/>
<path d="M176 83.0157H49V190H176V83.0157Z" fill="#9E63A5"/>
<path d="M138.03 127.256H90.3867C88.3526 127.256 86.6982 125.601 86.6982 123.567C86.6982 121.532 88.3436 119.877 90.3867 119.877H138.03C140.064 119.877 141.718 121.532 141.718 123.567C141.718 125.601 140.073 127.256 138.03 127.256Z" fill="#5A3A60"/>
<path d="M100.259 123.567C100.259 128.26 96.4622 132.058 91.7702 132.058C87.0782 132.058 83.2812 128.26 83.2812 123.567C83.2812 118.873 87.0782 115.075 91.7702 115.075C96.4622 115.075 100.259 118.873 100.259 123.567Z" fill="#6C5164"/>
<path d="M176 152.28V150.399H64.7124V83.0157H62.832V190H64.7124V168.332H176V166.46H64.7124V152.28H176Z" fill="#5A3A60"/>
<path d="M92.4307 56.8348L104.807 56.889" stroke="#6C5164" stroke-width="2" stroke-miterlimit="10"/>
<path d="M120.374 56.663L132.75 56.7172" stroke="#6C5164" stroke-width="2" stroke-miterlimit="10"/>
</g>
<defs>
<clipPath id="clip0_7_947">
<rect width="127" height="156" fill="white" transform="translate(49 34)"/>
</clipPath>
</defs>
</svg>
