<svg width="225" height="225" viewBox="0 0 225 225" fill="none" xmlns="http://www.w3.org/2000/svg">
<circle cx="112.5" cy="112.5" r="112.5" fill="#33415C"/>
<g clip-path="url(#clip0_7_357)">
<path d="M168.686 149.029L168.75 98.4066H56.25V149.084L63.4038 155.854V191.25H161.477V155.854L168.686 149.029Z" fill="#FBBE51"/>
<path d="M86.3948 98.4065L95.2431 93.7194L86.3948 89.069H138.614L129.757 93.7194L138.614 98.4065H86.3948Z" fill="#6C5164"/>
<path d="M161.248 52.9846H151.868V76.1634H161.248V52.9846Z" fill="#6C5164"/>
<path d="M167.028 56.1308H158.427V73.0172H167.028V56.1308Z" fill="#6C5164"/>
<path d="M161.431 56.1308V36.7586H163.41V61.0655L161.431 56.1308Z" fill="#6C5164"/>
<path d="M162.42 39.7671C164.08 39.7671 165.425 38.4201 165.425 36.7586C165.425 35.097 164.08 33.75 162.42 33.75C160.761 33.75 159.416 35.097 159.416 36.7586C159.416 38.4201 160.761 39.7671 162.42 39.7671Z" fill="#6C5164"/>
<path d="M73.1313 52.9846H63.7517V76.1634H73.1313V52.9846Z" fill="#6C5164"/>
<path d="M66.5729 56.1308H57.9719V73.0172H66.5729V56.1308Z" fill="#6C5164"/>
<path d="M63.5685 56.1308V36.7586H61.5991V61.0655L63.5685 56.1308Z" fill="#6C5164"/>
<path d="M62.5884 39.7671C64.2477 39.7671 65.5928 38.4201 65.5928 36.7586C65.5928 35.097 64.2477 33.75 62.5884 33.75C60.9291 33.75 59.584 35.097 59.584 36.7586C59.584 38.4201 60.9291 39.7671 62.5884 39.7671Z" fill="#6C5164"/>
<path d="M103.991 65.6884C103.991 70.6874 99.9511 74.7325 94.959 74.7325C89.9669 74.7325 85.9275 70.6874 85.9275 65.6884C85.9275 60.6895 89.9669 56.6444 94.959 56.6444C99.9511 56.6444 103.991 60.6895 103.991 65.6884Z" fill="#FCE16B"/>
<path d="M138.578 65.6884C138.578 70.6874 134.538 74.7325 129.546 74.7325C124.554 74.7325 120.515 70.6874 120.515 65.6884C120.515 60.6895 124.554 56.6444 129.546 56.6444C134.538 56.6444 138.578 60.6895 138.578 65.6884Z" fill="#FCE16B"/>
<path d="M152.253 42.3813H72.7559V89.0048H152.253V42.3813Z" fill="#FBBE51"/>
<path d="M103.789 64.3126C103.789 69.3116 99.7496 73.3566 94.7576 73.3566C89.7655 73.3566 85.7261 69.3116 85.7261 64.3126C85.7261 59.3136 89.7655 55.2686 94.7576 55.2686C99.7496 55.2686 103.789 59.3136 103.789 64.3126Z" fill="white"/>
<path d="M99.5848 65.3032C99.0352 65.3032 98.5955 64.8629 98.5955 64.3126C98.5955 62.1937 96.8735 60.4693 94.7576 60.4693C92.6417 60.4693 90.9197 62.1937 90.9197 64.3126C90.9197 64.8629 90.4708 65.3032 89.9304 65.3032C89.39 65.3032 88.9412 64.8629 88.9412 64.3126C88.9412 61.1022 91.5517 58.4881 94.7576 58.4881C97.9635 58.4881 100.574 61.1022 100.574 64.3126C100.574 64.8629 100.134 65.3032 99.5848 65.3032Z" fill="#6C5164"/>
<path d="M113.178 80.5203C109.972 80.5203 107.361 77.9061 107.361 74.6958C107.361 74.1454 107.81 73.7052 108.351 73.7052C108.891 73.7052 109.34 74.1454 109.34 74.6958C109.34 76.8146 111.062 78.539 113.178 78.539C115.294 78.539 117.016 76.8146 117.016 74.6958C117.016 74.1454 117.465 73.7052 118.005 73.7052C118.545 73.7052 118.994 74.1454 118.994 74.6958C118.994 77.9061 116.384 80.5203 113.178 80.5203Z" fill="#6C5164"/>
<path d="M138.376 64.3126C138.376 69.3116 134.337 73.3566 129.345 73.3566C124.353 73.3566 120.313 69.3116 120.313 64.3126C120.313 59.3136 124.353 55.2686 129.345 55.2686C134.328 55.2686 138.376 59.3136 138.376 64.3126Z" fill="white"/>
<path d="M134.254 65.3032C133.705 65.3032 133.265 64.8629 133.265 64.3126C133.265 62.1937 131.543 60.4693 129.427 60.4693C127.311 60.4693 125.589 62.1937 125.589 64.3126C125.589 64.8629 125.141 65.3032 124.6 65.3032C124.06 65.3032 123.611 64.8629 123.611 64.3126C123.611 61.1022 126.221 58.4881 129.427 58.4881C132.633 58.4881 135.244 61.1022 135.244 64.3126C135.244 64.8629 134.804 65.3032 134.254 65.3032Z" fill="#6C5164"/>
<path d="M148.031 120.32H76.9692V140.747H148.031V120.32Z" fill="white"/>
<path d="M98.0366 155.716C98.0366 158.853 95.4993 161.403 92.3575 161.403C89.2157 161.403 86.6785 158.862 86.6785 155.716C86.6785 152.57 89.2157 150.029 92.3575 150.029C95.4901 150.029 98.0366 152.57 98.0366 155.716Z" fill="#FCE16B"/>
<path d="M117.19 155.716C117.19 158.853 114.652 161.403 111.511 161.403C108.369 161.403 105.832 158.862 105.832 155.716C105.832 152.57 108.369 150.029 111.511 150.029C114.643 150.029 117.19 152.57 117.19 155.716Z" fill="#19A8A8"/>
<path d="M136.343 155.716C136.343 158.853 133.805 161.403 130.664 161.403C127.522 161.403 124.985 158.862 124.985 155.716C124.985 152.57 127.522 150.029 130.664 150.029C133.796 150.029 136.343 152.57 136.343 155.716Z" fill="white"/>
</g>
<defs>
<clipPath id="clip0_7_357">
<rect width="112.5" height="157.5" fill="white" transform="translate(56.25 33.75)"/>
</clipPath>
</defs>
</svg>
