<svg width="225" height="225" viewBox="0 0 225 225" fill="none" xmlns="http://www.w3.org/2000/svg">
<circle cx="112.5" cy="112.5" r="112.5" fill="#33415C"/>
<g clip-path="url(#clip0_7_673)">
<path d="M96.96 87.63L102.43 84.11L96.96 80.61H129.23L123.76 84.11L129.23 87.63H96.96Z" fill="#6C5164"/>
<path d="M113.1 26C98.8899 26 87.3799 37.52 87.3799 51.72V80.95H138.82V51.72C138.82 37.51 127.3 26 113.1 26Z" fill="#F4ABCC"/>
<path d="M92.14 48.77C92.14 49.22 91.77 49.59 91.32 49.59C90.87 49.59 90.5 49.22 90.5 48.77C90.5 48.32 90.87 47.95 91.32 47.95C91.77 47.95 92.14 48.32 92.14 48.77Z" fill="#E48AB3"/>
<path d="M106.66 48.77C106.66 49.22 106.29 49.59 105.84 49.59C105.39 49.59 105.02 49.22 105.02 48.77C105.02 48.32 105.39 47.95 105.84 47.95C106.3 47.95 106.66 48.32 106.66 48.77Z" fill="#E48AB3"/>
<path d="M121.18 48.77C121.18 49.22 120.81 49.59 120.36 49.59C119.91 49.59 119.54 49.22 119.54 48.77C119.54 48.32 119.91 47.95 120.36 47.95C120.82 47.95 121.18 48.32 121.18 48.77Z" fill="#E48AB3"/>
<path d="M135.71 48.77C135.71 49.22 135.34 49.59 134.89 49.59C134.44 49.59 134.07 49.22 134.07 48.77C134.07 48.32 134.44 47.95 134.89 47.95C135.34 47.95 135.71 48.32 135.71 48.77Z" fill="#E48AB3"/>
<path d="M138.85 51.07H87.3301V52.37H138.85V51.07Z" fill="#E48AB3"/>
<path d="M135.46 51.72H134.16V80.95H135.46V51.72Z" fill="#E48AB3"/>
<path d="M107.67 62.62C107.67 65.89 105.01 68.55 101.74 68.55C98.4701 68.55 95.8101 65.89 95.8101 62.62C95.8101 59.35 98.4701 56.69 101.74 56.69C105.01 56.69 107.67 59.35 107.67 62.62Z" fill="white"/>
<path d="M113.84 73.25C111.74 73.25 110.02 71.54 110.02 69.43C110.02 69.07 110.31 68.78 110.67 68.78C111.03 68.78 111.32 69.07 111.32 69.43C111.32 70.82 112.45 71.95 113.84 71.95C115.23 71.95 116.36 70.82 116.36 69.43C116.36 69.07 116.65 68.78 117.01 68.78C117.37 68.78 117.66 69.07 117.66 69.43C117.66 71.54 115.95 73.25 113.84 73.25Z" fill="#E48AB3"/>
<path d="M130.38 62.62C130.38 65.89 127.72 68.55 124.45 68.55C121.18 68.55 118.52 65.89 118.52 62.62C118.52 59.35 121.18 56.69 124.45 56.69C127.72 56.69 130.38 59.35 130.38 62.62Z" fill="white"/>
<path d="M92.0402 51.72H90.7402V80.95H92.0402V51.72Z" fill="#E48AB3"/>
<path d="M76.41 87.68H149.79L165.19 198.46H61L76.41 87.68Z" fill="#F4ABCC"/>
<path d="M98.5901 87.63H97.3701V198.42H98.5901V87.63Z" fill="#E48AB3"/>
<path d="M156.95 128.59H97.98V129.81H156.95V128.59Z" fill="#E48AB3"/>
<path d="M91.7602 97.26H79.9102V122.05H91.7602V97.26Z" fill="#E48AB3"/>
<path d="M123.19 119.39C123.19 121.12 121.79 122.52 120.06 122.52C118.33 122.52 116.93 121.12 116.93 119.39C116.93 117.66 118.33 116.26 120.06 116.26C121.79 116.26 123.19 117.66 123.19 119.39Z" fill="#DD5668"/>
<path d="M131.01 122.52C132.739 122.52 134.14 121.119 134.14 119.39C134.14 117.661 132.739 116.26 131.01 116.26C129.282 116.26 127.88 117.661 127.88 119.39C127.88 121.119 129.282 122.52 131.01 122.52Z" fill="#EF8037"/>
<path d="M145.1 119.39C145.1 121.12 143.7 122.52 141.97 122.52C140.24 122.52 138.84 121.12 138.84 119.39C138.84 117.66 140.24 116.26 141.97 116.26C143.7 116.26 145.1 117.66 145.1 119.39Z" fill="white"/>
<path d="M106.55 134.77C106.981 134.77 107.33 134.421 107.33 133.99C107.33 133.559 106.981 133.21 106.55 133.21C106.119 133.21 105.77 133.559 105.77 133.99C105.77 134.421 106.119 134.77 106.55 134.77Z" fill="#E48AB3"/>
<path d="M120.98 133.99C120.98 134.42 120.63 134.77 120.2 134.77C119.77 134.77 119.42 134.42 119.42 133.99C119.42 133.56 119.77 133.21 120.2 133.21C120.63 133.21 120.98 133.56 120.98 133.99Z" fill="#E48AB3"/>
<path d="M133.87 134.77C134.301 134.77 134.65 134.421 134.65 133.99C134.65 133.559 134.301 133.21 133.87 133.21C133.439 133.21 133.09 133.559 133.09 133.99C133.09 134.421 133.439 134.77 133.87 134.77Z" fill="#E48AB3"/>
<path d="M147.53 134.77C147.961 134.77 148.31 134.421 148.31 133.99C148.31 133.559 147.961 133.21 147.53 133.21C147.099 133.21 146.75 133.559 146.75 133.99C146.75 134.421 147.099 134.77 147.53 134.77Z" fill="#E48AB3"/>
<path d="M103.29 59.28C104.61 59.28 105.5 60.52 105.5 61.68C105.5 64.03 101.81 65.96 101.74 65.96C101.67 65.96 97.98 64.04 97.98 61.68C97.98 60.52 98.87 59.28 100.19 59.28C100.95 59.28 101.45 59.66 101.73 59.99C102.02 59.66 102.51 59.28 103.27 59.28H103.29Z" fill="#E30613"/>
<path d="M126 58.95C127.32 58.95 128.21 60.32 128.21 61.59C128.21 64.17 124.52 66.29 124.45 66.29C124.38 66.29 120.69 64.18 120.69 61.59C120.69 60.32 121.58 58.95 122.9 58.95C123.66 58.95 124.16 59.37 124.44 59.73C124.73 59.36 125.22 58.95 125.98 58.95H126Z" fill="#E30613"/>
</g>
<defs>
<clipPath id="clip0_7_673">
<rect width="104.19" height="172.46" fill="white" transform="translate(61 26)"/>
</clipPath>
</defs>
</svg>
