<svg width="750" height="338" viewBox="0 0 750 338" fill="none" xmlns="http://www.w3.org/2000/svg">
<path d="M425.989 119.584V208H413.533V119.584H382.573V108.856H457.381L456.085 119.584H425.989ZM540.412 180.568C540.412 186.232 538.996 191.272 536.164 195.688C533.332 200.056 529.228 203.488 523.852 205.984C518.476 208.432 511.924 209.656 504.196 209.656C496.948 209.656 490.372 208.552 484.468 206.344C478.612 204.136 473.596 201.016 469.42 196.984L476.836 188.632C480.292 191.848 484.252 194.416 488.716 196.336C493.18 198.208 498.412 199.144 504.412 199.144C508.444 199.144 512.212 198.496 515.716 197.2C519.22 195.856 522.052 193.84 524.212 191.152C526.372 188.416 527.452 184.96 527.452 180.784C527.452 177.568 526.828 174.832 525.58 172.576C524.332 170.32 522.124 168.328 518.956 166.6C515.788 164.824 511.372 163.096 505.708 161.416C499.18 159.496 493.516 157.336 488.716 154.936C483.964 152.488 480.268 149.488 477.628 145.936C475.036 142.384 473.74 137.992 473.74 132.76C473.74 127.816 475.108 123.424 477.844 119.584C480.58 115.744 484.348 112.744 489.148 110.584C493.996 108.376 499.564 107.272 505.852 107.272C512.716 107.272 518.668 108.256 523.708 110.224C528.796 112.144 533.404 114.928 537.532 118.576L530.188 126.712C526.636 123.544 522.82 121.264 518.74 119.872C514.66 118.432 510.508 117.712 506.284 117.712C502.684 117.712 499.372 118.264 496.348 119.368C493.372 120.424 490.972 122.032 489.148 124.192C487.372 126.304 486.484 129.016 486.484 132.328C486.484 135.16 487.252 137.608 488.788 139.672C490.324 141.736 492.916 143.632 496.564 145.36C500.212 147.04 505.18 148.816 511.468 150.688C516.604 152.176 521.356 154.048 525.724 156.304C530.14 158.512 533.692 161.536 536.38 165.376C539.068 169.168 540.412 174.232 540.412 180.568ZM621.068 108.856V118.864H599.036V197.992H621.068V208H564.332V197.992H586.364V118.864H564.332V108.856H621.068ZM721.596 108.856L706.476 208H690.06L678.684 133.192L667.236 208H650.46L636.492 108.856H649.02L659.604 194.248L671.484 120.376H686.82L698.124 194.248L710.004 108.856H721.596ZM375.588 237.64V240.907H368.397V266.733H375.588V270H357.07V266.733H364.261V240.907H357.07V237.64H375.588ZM385.134 270V245.254H388.494L388.8 248.685C389.802 247.416 391.056 246.445 392.56 245.771C394.079 245.082 395.552 244.737 396.978 244.737C399.406 244.737 401.168 245.38 402.265 246.664C403.377 247.949 403.934 249.735 403.934 252.022V270H399.986V254.936C399.986 253.244 399.892 251.881 399.704 250.847C399.516 249.798 399.124 249.038 398.529 248.568C397.933 248.082 397.009 247.839 395.756 247.839C394.784 247.839 393.868 248.051 393.006 248.474C392.16 248.897 391.4 249.43 390.727 250.072C390.069 250.699 389.52 251.333 389.082 251.975V270H385.134ZM432.961 268.754C432.115 269.318 431.089 269.757 429.883 270.071C428.676 270.384 427.494 270.541 426.334 270.541C423.671 270.541 421.619 269.843 420.177 268.449C418.736 267.055 418.015 265.261 418.015 263.067V248.309H412.328V245.254H418.015V239.638L421.963 239.168V245.254H430.517L430.047 248.309H421.963V263.02C421.963 264.399 422.324 265.449 423.044 266.169C423.781 266.89 424.995 267.25 426.687 267.25C427.611 267.25 428.465 267.141 429.248 266.921C430.032 266.702 430.76 266.42 431.434 266.075L432.961 268.754ZM444.599 259.025C444.677 260.937 445.045 262.503 445.703 263.725C446.361 264.932 447.231 265.825 448.312 266.404C449.393 266.968 450.568 267.25 451.837 267.25C453.106 267.25 454.25 267.062 455.268 266.686C456.302 266.31 457.359 265.754 458.44 265.018L460.297 267.626C459.138 268.535 457.814 269.248 456.325 269.765C454.853 270.282 453.341 270.541 451.79 270.541C449.393 270.541 447.348 270 445.656 268.919C443.964 267.838 442.672 266.334 441.779 264.407C440.902 262.464 440.463 260.216 440.463 257.662C440.463 255.156 440.909 252.931 441.802 250.988C442.695 249.046 443.949 247.518 445.562 246.406C447.176 245.294 449.08 244.737 451.273 244.737C453.357 244.737 455.15 245.231 456.654 246.218C458.158 247.189 459.31 248.584 460.109 250.401C460.924 252.203 461.331 254.357 461.331 256.863C461.331 257.286 461.323 257.686 461.307 258.062C461.292 258.422 461.268 258.743 461.237 259.025H444.599ZM451.32 247.98C449.487 247.98 447.952 248.631 446.714 249.931C445.492 251.231 444.795 253.244 444.622 255.97H457.524C457.477 253.323 456.897 251.333 455.785 250.001C454.673 248.654 453.184 247.98 451.32 247.98ZM469.914 270V266.968H473.768V248.286H469.914V245.254H476.776L477.504 251.106C478.46 249.069 479.619 247.495 480.982 246.383C482.345 245.27 484.147 244.714 486.387 244.714C487.076 244.714 487.687 244.769 488.22 244.878C488.768 244.972 489.325 245.098 489.889 245.254L488.737 248.779C488.22 248.638 487.75 248.537 487.327 248.474C486.904 248.396 486.418 248.356 485.87 248.356C483.974 248.356 482.345 249.03 480.982 250.377C479.619 251.725 478.53 253.761 477.716 256.487V266.968H482.745V270H469.914ZM486.082 253.62V248.239L486.481 245.254H489.889L489.325 253.62H486.082ZM515.579 264.595C515.579 265.582 515.744 266.303 516.073 266.757C516.402 267.211 516.911 267.548 517.6 267.767L516.637 270.541C515.571 270.4 514.639 270.063 513.84 269.53C513.041 268.982 512.462 268.159 512.101 267.062C511.208 268.206 510.096 269.076 508.764 269.671C507.433 270.251 505.96 270.541 504.346 270.541C501.871 270.541 499.92 269.843 498.495 268.449C497.069 267.055 496.356 265.206 496.356 262.903C496.356 260.349 497.351 258.391 499.341 257.028C501.33 255.665 504.205 254.983 507.965 254.983H511.608V252.915C511.608 251.129 511.083 249.868 510.033 249.132C508.999 248.38 507.558 248.004 505.709 248.004C504.895 248.004 503.939 248.106 502.842 248.309C501.746 248.497 500.555 248.819 499.27 249.273L498.236 246.288C499.756 245.724 501.182 245.325 502.513 245.09C503.845 244.855 505.114 244.737 506.32 244.737C509.407 244.737 511.717 245.458 513.253 246.899C514.804 248.325 515.579 250.268 515.579 252.727V264.595ZM505.357 267.532C506.579 267.532 507.746 267.227 508.858 266.616C509.971 265.989 510.887 265.128 511.608 264.031V257.662H508.036C505.31 257.662 503.383 258.132 502.255 259.072C501.142 260.012 500.586 261.274 500.586 262.856C500.586 264.391 500.978 265.558 501.761 266.357C502.56 267.141 503.759 267.532 505.357 267.532ZM545.688 268.754C544.842 269.318 543.816 269.757 542.609 270.071C541.403 270.384 540.22 270.541 539.061 270.541C536.398 270.541 534.345 269.843 532.904 268.449C531.463 267.055 530.742 265.261 530.742 263.067V248.309H525.055V245.254H530.742V239.638L534.69 239.168V245.254H543.244L542.774 248.309H534.69V263.02C534.69 264.399 535.05 265.449 535.771 266.169C536.507 266.89 537.721 267.25 539.413 267.25C540.338 267.25 541.192 267.141 541.975 266.921C542.758 266.702 543.487 266.42 544.16 266.075L545.688 268.754ZM566.749 245.254V266.874H573.729V270H555.164V266.874H562.801V248.38H555.399V245.254H566.749ZM563.6 233.669C564.477 233.669 565.175 233.935 565.692 234.468C566.224 235.001 566.491 235.651 566.491 236.418C566.491 237.217 566.224 237.891 565.692 238.439C565.175 238.972 564.477 239.238 563.6 239.238C562.77 239.238 562.088 238.972 561.556 238.439C561.023 237.891 560.757 237.217 560.757 236.418C560.757 235.651 561.023 235.001 561.556 234.468C562.088 233.935 562.77 233.669 563.6 233.669ZM603.038 245.254L594.038 270H589.455L580.525 245.254H584.708L591.876 266.404L598.949 245.254H603.038ZM613.689 259.025C613.767 260.937 614.135 262.503 614.793 263.725C615.451 264.932 616.321 265.825 617.402 266.404C618.483 266.968 619.658 267.25 620.927 267.25C622.196 267.25 623.339 267.062 624.358 266.686C625.392 266.31 626.449 265.754 627.53 265.018L629.387 267.626C628.227 268.535 626.904 269.248 625.415 269.765C623.943 270.282 622.431 270.541 620.88 270.541C618.483 270.541 616.438 270 614.746 268.919C613.054 267.838 611.762 266.334 610.869 264.407C609.991 262.464 609.553 260.216 609.553 257.662C609.553 255.156 609.999 252.931 610.892 250.988C611.785 249.046 613.039 247.518 614.652 246.406C616.266 245.294 618.169 244.737 620.363 244.737C622.446 244.737 624.24 245.231 625.744 246.218C627.248 247.189 628.4 248.584 629.199 250.401C630.013 252.203 630.421 254.357 630.421 256.863C630.421 257.286 630.413 257.686 630.397 258.062C630.382 258.422 630.358 258.743 630.327 259.025H613.689ZM620.41 247.98C618.577 247.98 617.041 248.631 615.804 249.931C614.582 251.231 613.885 253.244 613.712 255.97H626.614C626.567 253.323 625.987 251.333 624.875 250.001C623.762 248.654 622.274 247.98 620.41 247.98ZM682.437 270V254.654H670.217V270H666.151V237.64H670.217V251.317H682.437V237.64H686.502V270H682.437ZM699.08 245.254V262.785C699.08 264.415 699.417 265.59 700.09 266.31C700.764 267.031 701.814 267.391 703.239 267.391C704.602 267.391 705.887 267.008 707.093 266.24C708.315 265.457 709.263 264.532 709.937 263.467V245.254H713.885V270H710.524L710.195 266.663C709.224 267.916 708.025 268.88 706.6 269.553C705.174 270.212 703.733 270.541 702.276 270.541C699.879 270.541 698.085 269.906 696.894 268.637C695.719 267.352 695.132 265.558 695.132 263.255V245.254H699.08ZM727.261 248.474C728.17 247.283 729.212 246.367 730.387 245.725C731.578 245.066 732.886 244.737 734.311 244.737C736.52 244.737 738.306 245.27 739.669 246.335C741.032 247.401 742.027 248.905 742.654 250.847C743.281 252.774 743.594 255.03 743.594 257.615C743.594 260.106 743.218 262.331 742.466 264.289C741.714 266.232 740.609 267.76 739.152 268.872C737.711 269.984 735.925 270.541 733.794 270.541C730.927 270.541 728.679 269.506 727.05 267.438L726.768 270H723.313V235.29L727.261 234.797V248.474ZM732.854 267.344C734.922 267.344 736.513 266.545 737.625 264.947C738.737 263.349 739.293 260.898 739.293 257.592C739.293 255.43 739.074 253.636 738.635 252.21C738.197 250.769 737.539 249.696 736.661 248.991C735.8 248.27 734.734 247.91 733.465 247.91C732.087 247.91 730.873 248.325 729.823 249.155C728.789 249.97 727.935 250.879 727.261 251.881V264.148C727.904 265.12 728.711 265.895 729.682 266.475C730.669 267.055 731.726 267.344 732.854 267.344Z" fill="#FFFCF2"/>
<g clip-path="url(#clip0_46_147)">
<path d="M243.512 283.679C243.512 313.661 219.217 338 189.22 338H105.717C75.7508 338 51.4248 313.693 51.4248 283.679V131.625C51.4248 101.643 75.7193 77.304 105.717 77.304H189.22C219.186 77.304 243.512 101.611 243.512 131.625V283.679Z" fill="#7D8597"/>
<path d="M222.085 134.336H72.5997C65.2893 134.336 58.1995 135.345 51.4878 137.237V283.679C51.4878 285.476 51.5823 287.242 51.7399 288.976C58.3886 290.804 65.3839 291.782 72.5997 291.782C107.482 291.782 137.007 269.082 147.342 237.65C157.678 269.082 187.234 291.782 222.085 291.782C229.427 291.782 236.517 290.741 243.26 288.881C243.417 287.179 243.512 285.413 243.512 283.679V137.331C236.706 135.408 229.521 134.336 222.085 134.336Z" fill="#001233"/>
<path d="M75.2782 155.774C43.7048 162.017 16.2278 184.401 5.04161 217.063C-6.14457 249.725 1.85906 284.278 22.971 308.585C54.5444 302.343 82.0214 279.927 93.2076 247.297C104.394 214.635 96.3901 180.082 75.2782 155.806V155.774Z" fill="#33415C"/>
<path d="M23.1286 185.851C15.3455 194.71 9.10645 205.209 5.04161 217.063C-6.14457 249.725 1.85906 284.278 22.971 308.585C49.1561 303.415 72.4738 287.116 86.0547 263.092C70.7407 250.923 42.5389 224.913 23.097 185.851H23.1286Z" fill="#FFFCF2"/>
<path d="M9.23249 206.943C7.65697 210.221 6.239 213.563 5.04161 217.094C-6.14457 249.756 1.85906 284.31 22.971 308.617C41.3731 304.991 58.3256 295.849 71.5285 282.418C56.5926 270.627 28.8004 245.216 9.20098 206.974L9.23249 206.943Z" fill="#7D8597"/>
<path d="M219.722 155.774C251.295 162.017 278.772 184.401 289.958 217.063C301.145 249.725 293.141 284.278 271.997 308.585C240.424 302.343 212.947 279.927 201.761 247.297C190.575 214.635 198.578 180.082 219.69 155.806L219.722 155.774Z" fill="#33415C"/>
<path d="M271.872 185.851C279.655 194.71 285.894 205.209 289.958 217.063C301.145 249.725 293.141 284.278 272.029 308.585C245.875 303.415 222.526 287.116 208.945 263.092C224.259 250.923 252.461 224.913 271.903 185.851H271.872Z" fill="#FFFCF2"/>
<path d="M285.767 206.943C287.343 210.221 288.761 213.563 289.958 217.094C301.144 249.756 293.141 284.31 272.029 308.617C253.627 304.991 236.674 295.849 223.471 282.418C238.407 270.627 266.199 245.216 285.799 206.974L285.767 206.943Z" fill="#7D8597"/>
<path d="M147.5 221.004C208.496 221.004 257.944 171.53 257.944 110.502C257.944 49.4733 208.496 0 147.5 0C86.5035 0 37.0562 49.4733 37.0562 110.502C37.0562 171.53 86.5035 221.004 147.5 221.004Z" fill="#7D8597"/>
<path d="M142.584 98.6162C142.584 125.446 120.842 147.231 93.9955 147.231C67.1486 147.231 45.4065 125.477 45.4065 98.6162C45.4065 71.7553 67.1486 50.0017 93.9955 50.0017C120.842 50.0017 142.584 71.7553 142.584 98.6162Z" fill="#FFFCF2"/>
<path d="M132.186 98.6162C132.186 119.708 115.107 136.795 94.027 136.795C72.9465 136.795 55.8679 119.708 55.8679 98.6162C55.8679 77.5247 72.9465 60.4371 94.027 60.4371C115.107 60.4371 132.186 77.5247 132.186 98.6162Z" fill="#E30613"/>
<path d="M118.321 98.6162C118.321 112.047 107.45 122.923 94.0269 122.923C80.6035 122.923 69.7324 112.047 69.7324 98.6162C69.7324 85.1857 80.6035 74.309 94.0269 74.309C107.45 74.309 118.321 85.1857 118.321 98.6162Z" fill="#001233"/>
<path d="M93.3338 92.3108C93.3338 89.7256 95.4134 87.6448 97.9973 87.6448H101.999C103.102 87.6448 104.016 88.5275 104.016 89.6625C104.016 90.7975 103.133 91.6802 101.999 91.6802H97.9973C97.6192 91.6802 97.3356 91.964 97.3356 92.3423V96.3462C97.3356 96.7245 97.6192 97.0083 97.9973 97.0083H99.3207C101.905 97.0083 103.984 99.089 103.984 101.674V105.678C103.984 108.263 101.905 110.344 99.3207 110.344H95.3189C94.216 110.344 93.3022 109.461 93.3022 108.326C93.3022 107.191 94.1845 106.309 95.3189 106.309H99.3207C99.6988 106.309 99.9824 106.025 99.9824 105.647V101.643C99.9824 101.264 99.6988 100.981 99.3207 100.981H97.9973C95.4134 100.981 93.3338 98.8999 93.3338 96.3147V92.3108Z" fill="#FFFCF2"/>
<path d="M89.9937 89.631C89.9937 88.5276 89.1114 87.6133 87.977 87.6133C86.8427 87.6133 85.9604 88.496 85.9604 89.631V105.678C85.9604 106.057 85.6768 106.34 85.2987 106.34H81.9586C80.8557 106.34 79.9419 107.223 79.9419 108.358C79.9419 109.493 80.8242 110.376 81.9586 110.376H85.2987C87.8825 110.376 89.9622 108.295 89.9622 105.71V89.6625L89.9937 89.631Z" fill="#FFFCF2"/>
<path d="M249.562 98.6162C249.562 125.446 227.82 147.231 201.005 147.231C174.189 147.231 152.416 125.477 152.416 98.6162C152.416 71.7553 174.158 50.0017 201.005 50.0017C227.82 50.0017 249.562 71.7553 249.562 98.6162Z" fill="#FFFCF2"/>
<path d="M239.132 98.6162C239.132 119.708 222.053 136.795 200.973 136.795C179.893 136.795 162.814 119.708 162.814 98.6162C162.814 77.5247 179.893 60.4371 200.973 60.4371C222.053 60.4371 239.132 77.5247 239.132 98.6162Z" fill="#E30613"/>
<path d="M225.267 98.6162C225.267 112.047 214.396 122.923 200.973 122.923C187.55 122.923 176.678 112.047 176.678 98.6162C176.678 85.1857 187.55 74.309 200.973 74.309C214.396 74.309 225.267 85.1857 225.267 98.6162Z" fill="#001233"/>
<path d="M200.973 83.2941C194.167 83.2941 194.167 86.0369 194.167 86.0369V91.4911H202.359V92.8468H188.715C188.715 92.8468 184.619 92.2162 184.619 99.6566C184.619 107.097 188.715 106.466 188.715 106.466H192.812V104.259C192.812 100.981 195.49 98.3009 198.767 98.3009H203.21C205.731 98.3009 207.811 97.6073 207.811 95.0536V86.0054C207.811 86.0054 207.811 83.2626 201.005 83.2626L200.973 83.2941ZM196.877 86.0369C197.633 86.0369 198.232 86.636 198.232 87.3926C198.232 88.1492 197.633 88.7483 196.877 88.7483C196.12 88.7483 195.522 88.1492 195.522 87.3926C195.522 86.636 196.12 86.0369 196.877 86.0369ZM209.166 91.4911V95.0852C209.166 98.364 206.487 99.6881 203.21 99.6881H198.767C196.246 99.6881 194.167 101.769 194.167 104.291V111.952C194.167 111.952 194.261 114.695 200.973 114.695C207.685 114.695 207.779 111.952 207.779 111.952V106.498H199.587V105.142H213.231C213.231 105.142 217.327 105.836 217.327 98.3324C217.327 90.829 213.231 91.5226 213.231 91.5226H209.134L209.166 91.4911ZM205.069 109.241C205.826 109.241 206.424 109.84 206.424 110.596C206.424 111.353 205.826 111.952 205.069 111.952C204.313 111.952 203.714 111.353 203.714 110.596C203.714 109.84 204.313 109.241 205.069 109.241Z" fill="#FFFCF2"/>
<path d="M147.342 0C105.528 0 69.1652 23.2353 50.4165 57.5366C98.9425 67.8144 137.165 106.088 147.342 154.671C157.552 106.088 195.742 67.8459 244.3 57.5366C225.551 23.2353 189.157 0 147.342 0Z" fill="#7D8597"/>
<path d="M221.707 28.8157C184.178 44.6107 155.882 78.0922 147.342 118.857C138.772 78.0922 110.507 44.6107 72.9779 28.8157C63.966 37.0442 56.3089 46.7545 50.4165 57.5367C98.9425 67.8145 137.165 106.088 147.342 154.671C157.552 106.088 195.742 67.846 244.3 57.5367C238.407 46.7545 230.75 37.0442 221.738 28.8157H221.707Z" fill="#33415C"/>
<path d="M147.342 90.6399L129.539 111.731L147.342 154.671L165.146 111.731L147.342 90.6399Z" fill="#001233"/>
</g>
<defs>
<clipPath id="clip0_46_147">
<rect width="295" height="338" fill="white"/>
</clipPath>
</defs>
</svg>
