<svg id="Layer_1" data-name="Layer 1" xmlns="http://www.w3.org/2000/svg" xmlns:xlink="http://www.w3.org/1999/xlink" viewBox="0 0 681.35 338"><defs><style>.cls-1{fill:none;}.cls-2{clip-path:url(#clip-path);}.cls-3{fill:#7d8597;}.cls-4{fill:#001233;}.cls-5{fill:#33415c;}.cls-6{fill:#fffcf2;}.cls-7{fill:#e30613;}.cls-8{fill:#fff;}</style><clipPath id="clip-path" transform="translate(0.01 -3.06)"><rect class="cls-1" y="3.06" width="295" height="338"/></clipPath></defs><g class="cls-2"><path class="cls-3" d="M243.51,286.74a54.31,54.31,0,0,1-54.29,54.32h-83.5a54.31,54.31,0,0,1-54.3-54.32v-152a54.32,54.32,0,0,1,54.3-54.32h83.5a54.3,54.3,0,0,1,54.29,54.32Z" transform="translate(0.01 -3.06)"/><path class="cls-4" d="M222.09,137.4H72.6a77.81,77.81,0,0,0-21.11,2.9V286.74c0,1.8.09,3.56.25,5.3a78.73,78.73,0,0,0,95.6-51.33,78.68,78.68,0,0,0,95.92,51.23c.16-1.7.25-3.46.25-5.2V140.39A78.76,78.76,0,0,0,222.09,137.4Z" transform="translate(0.01 -3.06)"/><path class="cls-5" d="M75.28,158.84A93.27,93.27,0,0,0,23,311.65,93.25,93.25,0,0,0,75.28,158.87Z" transform="translate(0.01 -3.06)"/><path class="cls-6" d="M23.13,188.91A93.22,93.22,0,0,0,23,311.65a93.18,93.18,0,0,0,63.08-45.5C70.74,254,42.54,228,23.1,188.91Z" transform="translate(0.01 -3.06)"/><path class="cls-3" d="M9.23,210A91.17,91.17,0,0,0,5,220.16,93.3,93.3,0,0,0,23,311.68a93.56,93.56,0,0,0,48.56-26.2C56.59,273.69,28.8,248.28,9.2,210Z" transform="translate(0.01 -3.06)"/><path class="cls-5" d="M219.72,158.84A93.25,93.25,0,0,1,272,311.65a93.25,93.25,0,0,1-52.31-152.78Z" transform="translate(0.01 -3.06)"/><path class="cls-6" d="M271.87,188.91A93.22,93.22,0,0,1,272,311.65,93.27,93.27,0,0,1,209,266.15C224.26,254,252.46,228,271.9,188.91Z" transform="translate(0.01 -3.06)"/><path class="cls-3" d="M285.77,210A91.17,91.17,0,0,1,290,220.16,93.3,93.3,0,0,1,272,311.68a93.56,93.56,0,0,1-48.56-26.2c14.94-11.79,42.73-37.2,62.33-75.44Z" transform="translate(0.01 -3.06)"/><path class="cls-3" d="M147.5,224.07A110.51,110.51,0,1,0,37.06,113.56,110.47,110.47,0,0,0,147.5,224.07Z" transform="translate(0.01 -3.06)"/><path class="cls-6" d="M142.58,101.68A48.59,48.59,0,1,1,94,53.06,48.6,48.6,0,0,1,142.58,101.68Z" transform="translate(0.01 -3.06)"/><path class="cls-7" d="M132.19,101.68A38.16,38.16,0,1,1,94,63.5,38.16,38.16,0,0,1,132.19,101.68Z" transform="translate(0.01 -3.06)"/><path class="cls-4" d="M118.32,101.68A24.3,24.3,0,1,1,94,77.37,24.29,24.29,0,0,1,118.32,101.68Z" transform="translate(0.01 -3.06)"/><path class="cls-6" d="M93.33,95.37A4.65,4.65,0,0,1,98,90.71h4a2,2,0,1,1,0,4H98a.65.65,0,0,0-.66.66v4a.64.64,0,0,0,.66.66h1.32a4.65,4.65,0,0,1,4.66,4.67v4a4.65,4.65,0,0,1-4.66,4.67h-4a2,2,0,0,1-2-2,2,2,0,0,1,2-2h4a.64.64,0,0,0,.66-.66v-4a.65.65,0,0,0-.66-.67H98a4.65,4.65,0,0,1-4.67-4.66Z" transform="translate(0.01 -3.06)"/><path class="cls-6" d="M90,92.69a2,2,0,0,0-4,0v16a.64.64,0,0,1-.66.66H82a2,2,0,0,0-2,2,2,2,0,0,0,2,2H85.3A4.65,4.65,0,0,0,90,108.77v-16Z" transform="translate(0.01 -3.06)"/><path class="cls-6" d="M249.56,101.68A48.57,48.57,0,1,1,201,53.06,48.59,48.59,0,0,1,249.56,101.68Z" transform="translate(0.01 -3.06)"/><path class="cls-7" d="M239.13,101.68A38.16,38.16,0,1,1,201,63.5,38.16,38.16,0,0,1,239.13,101.68Z" transform="translate(0.01 -3.06)"/><path class="cls-4" d="M225.27,101.68A24.3,24.3,0,1,1,201,77.37,24.3,24.3,0,0,1,225.27,101.68Z" transform="translate(0.01 -3.06)"/><path class="cls-6" d="M201,86.36c-6.8,0-6.8,2.74-6.8,2.74v5.45h8.19v1.36H188.71s-4.09-.63-4.09,6.81,4.09,6.81,4.09,6.81h4.1v-2.21a6,6,0,0,1,6-6h4.44c2.52,0,4.6-.69,4.6-3.24V89.07s0-2.75-6.8-2.75Zm-4.09,2.74a1.36,1.36,0,1,1-1.36,1.35A1.34,1.34,0,0,1,196.88,89.1Zm12.29,5.45v3.6c0,3.28-2.68,4.6-6,4.6h-4.44a4.63,4.63,0,0,0-4.6,4.6V115s.09,2.75,6.8,2.75,6.81-2.75,6.81-2.75v-5.45h-8.19V108.2h13.64s4.1.7,4.1-6.81-4.1-6.81-4.1-6.81h-4.1Zm-4.1,17.75a1.36,1.36,0,1,1-1.36,1.36A1.34,1.34,0,0,1,205.07,112.3Z" transform="translate(0.01 -3.06)"/><path class="cls-3" d="M147.34,3.06A110.34,110.34,0,0,0,50.42,60.6a126,126,0,0,1,96.92,97.13,126,126,0,0,1,97-97.13A110.39,110.39,0,0,0,147.34,3.06Z" transform="translate(0.01 -3.06)"/><path class="cls-5" d="M221.71,31.88a126,126,0,0,0-74.37,90A126,126,0,0,0,73,31.88,111.11,111.11,0,0,0,50.42,60.6a126,126,0,0,1,96.92,97.13,126,126,0,0,1,97-97.13,111.11,111.11,0,0,0-22.56-28.72Z" transform="translate(0.01 -3.06)"/><path class="cls-4" d="M147.34,93.7l-17.8,21.09,17.8,42.94,17.81-42.94Z" transform="translate(0.01 -3.06)"/></g><path class="cls-8" d="M336.82,51.7V156.58h-10.6V51.7h-37V41.85H374l-1.17,9.85Z" transform="translate(0.01 -3.06)"/><path class="cls-8" d="M469.92,125.35a31.1,31.1,0,0,1-4.72,17A31.58,31.58,0,0,1,451.47,154q-9,4.22-22.05,4.22A62.85,62.85,0,0,1,408,154.66a48.33,48.33,0,0,1-17.25-10.52l7-8a46.1,46.1,0,0,0,13.61,9q7.75,3.38,18.62,3.38A38.92,38.92,0,0,0,444,146a24.79,24.79,0,0,0,10.77-7.69q4.18-5.17,4.18-13.19a21.36,21.36,0,0,0-2.26-10.23q-2.25-4.22-8-7.51a76,76,0,0,0-16.2-6.31,126.5,126.5,0,0,1-19-7,36,36,0,0,1-13.11-10q-4.75-6.06-4.76-15.32a25,25,0,0,1,4.39-14.45A30,30,0,0,1,412.22,44a43.18,43.18,0,0,1,18.62-3.76,54.71,54.71,0,0,1,19.83,3.26,53.16,53.16,0,0,1,15.49,9.35L459,60.72a39.18,39.18,0,0,0-13.48-8.18A44.47,44.47,0,0,0,430.84,50a35.36,35.36,0,0,0-12.19,2,20.78,20.78,0,0,0-9,6.14,15.73,15.73,0,0,0-3.42,10.44,15.21,15.21,0,0,0,2.84,9.22q2.83,3.89,9.56,7.1a123.55,123.55,0,0,0,18.16,6.55,98.76,98.76,0,0,1,16,6,32.47,32.47,0,0,1,12.4,10.19Q469.92,114.25,469.92,125.35Z" transform="translate(0.01 -3.06)"/><path class="cls-8" d="M563.69,41.85V51H537.64v96.53h26.05v9.1h-63v-9.1h26V51h-26v-9.1Z" transform="translate(0.01 -3.06)"/><path class="cls-8" d="M681.34,41.85l-18.7,114.73h-16.2L631.82,68.66l-14.44,87.92h-16.7L583.48,41.85h11.19l14.78,101,15-87.68h16l14.36,87.68L671,41.85Z" transform="translate(0.01 -3.06)"/><path class="cls-8" d="M335.69,235.25l-13.26-31.6c0,.27,0,.84,0,1.7s.08,1.9.14,3.12.11,2.52.15,3.89.06,2.71.06,4v18.87H319.6v-35h4.67L337.88,232a19,19,0,0,0-.05-2.37c-.07-1.28-.14-2.85-.21-4.72s-.12-3.85-.12-5.94V200.21h3.21v35Z" transform="translate(0.01 -3.06)"/><path class="cls-8" d="M353.34,223.13a12.32,12.32,0,0,0,1.21,5.52,7.39,7.39,0,0,0,3,3.18,8.35,8.35,0,0,0,4.06,1,10.71,10.71,0,0,0,3.76-.61,16.19,16.19,0,0,0,3.46-1.86l1.65,2.37a14.61,14.61,0,0,1-4.19,2.22,14.34,14.34,0,0,1-4.55.79,11.25,11.25,0,0,1-6.34-1.74,11,11,0,0,1-4-4.86,17.51,17.51,0,0,1-1.4-7.28,17.25,17.25,0,0,1,1.42-7.21,11.86,11.86,0,0,1,4-4.91,10.05,10.05,0,0,1,5.9-1.77,9.65,9.65,0,0,1,5.59,1.58,10,10,0,0,1,3.55,4.47,17.4,17.4,0,0,1,1.24,6.9c0,.46,0,.87,0,1.24s0,.68,0,.95Zm8-12.19a7.27,7.27,0,0,0-5.45,2.3q-2.21,2.3-2.48,7h15.22c-.07-3.15-.77-5.49-2.12-7A6.54,6.54,0,0,0,361.32,210.94Z" transform="translate(0.01 -3.06)"/><path class="cls-8" d="M381.9,235.25v-2.66h4.36V211.15H381.9v-2.68h6.78l.59,6.43a15.18,15.18,0,0,1,3.78-5.12,9,9,0,0,1,6-1.84,10.57,10.57,0,0,1,1.87.15c.55.1,1.14.23,1.75.38l-.89,3a13.71,13.71,0,0,0-1.57-.37,9,9,0,0,0-1.55-.12,7.59,7.59,0,0,0-5.5,2.21,15.93,15.93,0,0,0-3.7,7v12.44h5.51v2.66Zm17.31-18.36v-5.23l.21-3.19h3.21l-.36,8.42Z" transform="translate(0.01 -3.06)"/><path class="cls-8" d="M433.69,208.47l-10,26.78h-3.65l-9.84-26.78h3.29L422,232l8.34-23.56Z" transform="translate(0.01 -3.06)"/><path class="cls-8" d="M445.14,223.13a12.32,12.32,0,0,0,1.21,5.52,7.39,7.39,0,0,0,3,3.18,8.32,8.32,0,0,0,4.06,1,10.71,10.71,0,0,0,3.76-.61,16.14,16.14,0,0,0,3.45-1.86l1.66,2.37a14.61,14.61,0,0,1-4.19,2.22,14.4,14.4,0,0,1-4.56.79,11.24,11.24,0,0,1-6.33-1.74,11,11,0,0,1-4-4.86,17.51,17.51,0,0,1-1.41-7.28,17.25,17.25,0,0,1,1.43-7.21,11.79,11.79,0,0,1,4-4.91A10.05,10.05,0,0,1,453,208a9.6,9.6,0,0,1,5.58,1.58,9.93,9.93,0,0,1,3.56,4.47,17.4,17.4,0,0,1,1.24,6.9c0,.46,0,.87,0,1.24s0,.68-.05.95Zm8-12.19a7.27,7.27,0,0,0-5.45,2.3q-2.21,2.3-2.48,7h15.22c-.07-3.15-.77-5.49-2.12-7A6.55,6.55,0,0,0,453.12,210.94Z" transform="translate(0.01 -3.06)"/><path class="cls-8" d="M516.71,199.72a16.09,16.09,0,0,1,5.56.83,15.89,15.89,0,0,1,4.26,2.46l-2,2.27a10,10,0,0,0-3.58-2,13,13,0,0,0-3.89-.58,11.91,11.91,0,0,0-5.7,1.41,10.11,10.11,0,0,0-4.25,4.67,20.73,20.73,0,0,0-1.6,9,21.17,21.17,0,0,0,1.53,8.82,10.06,10.06,0,0,0,4.12,4.74,11.51,11.51,0,0,0,5.75,1.46,12.29,12.29,0,0,0,5-.87,14.43,14.43,0,0,0,3.33-2l1.84,2.34a13.13,13.13,0,0,1-4,2.49,15.78,15.78,0,0,1-6.13,1.06,14.09,14.09,0,0,1-7.49-2.08,14.46,14.46,0,0,1-5.36-6.1,25.37,25.37,0,0,1,0-19.77,14.73,14.73,0,0,1,5.36-6.05A13.53,13.53,0,0,1,516.71,199.72Z" transform="translate(0.01 -3.06)"/><path class="cls-8" d="M536.93,223.13a12.45,12.45,0,0,0,1.22,5.52,7.39,7.39,0,0,0,3,3.18,8.3,8.3,0,0,0,4.06,1,10.71,10.71,0,0,0,3.76-.61,16.14,16.14,0,0,0,3.45-1.86l1.66,2.37a14.61,14.61,0,0,1-4.19,2.22,14.4,14.4,0,0,1-4.56.79A11.24,11.24,0,0,1,539,234a11,11,0,0,1-4-4.86,17.51,17.51,0,0,1-1.41-7.28,17.25,17.25,0,0,1,1.43-7.21,11.71,11.71,0,0,1,4-4.91,10,10,0,0,1,5.9-1.77,9.62,9.62,0,0,1,5.58,1.58A9.93,9.93,0,0,1,554,214a17.4,17.4,0,0,1,1.24,6.9c0,.46,0,.87,0,1.24s0,.68-.05.95Zm8-12.19a7.27,7.27,0,0,0-5.45,2.3q-2.21,2.3-2.48,7h15.22q-.11-4.72-2.12-7A6.55,6.55,0,0,0,544.92,210.94Z" transform="translate(0.01 -3.06)"/><path class="cls-8" d="M565.24,235.25V208.47h2.65l.26,3.9a10.42,10.42,0,0,1,4.17-3.24,12,12,0,0,1,4.83-1.14c2.73,0,4.68.69,5.85,2.09a8.78,8.78,0,0,1,1.75,5.79v19.38h-3.17v-16a30.23,30.23,0,0,0-.33-5,4.39,4.39,0,0,0-1.42-2.8,5.55,5.55,0,0,0-3.45-.88,7.4,7.4,0,0,0-3.35.78,11.14,11.14,0,0,0-2.75,1.91,12.37,12.37,0,0,0-1.88,2.21v19.74Z" transform="translate(0.01 -3.06)"/><path class="cls-8" d="M616.26,234a10.24,10.24,0,0,1-3.21,1.33,15.17,15.17,0,0,1-3.49.46,8.84,8.84,0,0,1-6.31-2.15,7,7,0,0,1-2.29-5.38V211.12h-6.32v-2.65H601V202.3l3.17-.38v6.55h9.43l-.43,2.65h-9v17a4.85,4.85,0,0,0,1.26,3.58c.84.84,2.25,1.26,4.24,1.26a11,11,0,0,0,2.83-.35,12.4,12.4,0,0,0,2.43-1Z" transform="translate(0.01 -3.06)"/><path class="cls-8" d="M628.73,223.13a12.46,12.46,0,0,0,1.21,5.52,7.47,7.47,0,0,0,3,3.18,8.3,8.3,0,0,0,4.06,1,10.71,10.71,0,0,0,3.76-.61,16.38,16.38,0,0,0,3.45-1.86l1.66,2.37a14.54,14.54,0,0,1-4.2,2.22,14.29,14.29,0,0,1-4.55.79,11.22,11.22,0,0,1-6.33-1.74,11.06,11.06,0,0,1-4-4.86,17.67,17.67,0,0,1-1.4-7.28,17.25,17.25,0,0,1,1.43-7.21,11.77,11.77,0,0,1,4-4.91,10.09,10.09,0,0,1,5.91-1.77,9.62,9.62,0,0,1,5.58,1.58,9.93,9.93,0,0,1,3.56,4.47,17.58,17.58,0,0,1,1.24,6.9c0,.46,0,.87,0,1.24s0,.68,0,.95Zm8-12.19a7.26,7.26,0,0,0-5.44,2.3q-2.21,2.3-2.49,7H644q-.1-4.72-2.12-7A6.56,6.56,0,0,0,636.71,210.94Z" transform="translate(0.01 -3.06)"/><path class="cls-8" d="M657.29,235.25v-2.66h4.36V211.15h-4.36v-2.68h6.79l.58,6.43a15.33,15.33,0,0,1,3.79-5.12,9,9,0,0,1,5.95-1.84,10.69,10.69,0,0,1,1.88.15c.55.1,1.13.23,1.74.38l-.89,3a13.24,13.24,0,0,0-1.57-.37A8.84,8.84,0,0,0,674,211a7.63,7.63,0,0,0-5.51,2.21,16,16,0,0,0-3.69,7v12.44h5.5v2.66Zm17.32-18.36v-5.23l.2-3.19H678l-.35,8.42Z" transform="translate(0.01 -3.06)"/></svg>