<svg width="295" height="338" viewBox="0 0 295 338" fill="none" xmlns="http://www.w3.org/2000/svg">
<g clip-path="url(#clip0_7_34)">
<path d="M243.512 283.679C243.512 313.661 219.217 338 189.22 338H105.717C75.7508 338 51.4248 313.693 51.4248 283.679V131.625C51.4248 101.643 75.7193 77.304 105.717 77.304H189.22C219.186 77.304 243.512 101.611 243.512 131.625V283.679Z" fill="#7D8597"/>
<path d="M222.085 134.336H72.5997C65.2893 134.336 58.1995 135.345 51.4878 137.237V283.679C51.4878 285.476 51.5823 287.242 51.7399 288.976C58.3886 290.804 65.3839 291.782 72.5997 291.782C107.482 291.782 137.007 269.082 147.342 237.65C157.678 269.082 187.234 291.782 222.085 291.782C229.427 291.782 236.517 290.741 243.26 288.881C243.417 287.179 243.512 285.413 243.512 283.679V137.331C236.706 135.408 229.521 134.336 222.085 134.336Z" fill="#001233"/>
<path d="M75.2782 155.774C43.7048 162.017 16.2278 184.401 5.04161 217.063C-6.14457 249.725 1.85906 284.278 22.971 308.585C54.5444 302.343 82.0214 279.927 93.2076 247.297C104.394 214.635 96.3901 180.082 75.2782 155.806V155.774Z" fill="#33415C"/>
<path d="M23.1286 185.851C15.3455 194.71 9.10645 205.209 5.04161 217.063C-6.14457 249.725 1.85906 284.278 22.971 308.585C49.1561 303.415 72.4738 287.116 86.0547 263.092C70.7407 250.923 42.5389 224.913 23.097 185.851H23.1286Z" fill="#FFFCF2"/>
<path d="M9.23249 206.943C7.65697 210.221 6.239 213.563 5.04161 217.094C-6.14457 249.756 1.85906 284.31 22.971 308.617C41.3731 304.991 58.3256 295.849 71.5285 282.418C56.5926 270.627 28.8004 245.216 9.20098 206.974L9.23249 206.943Z" fill="#7D8597"/>
<path d="M219.722 155.774C251.295 162.017 278.772 184.401 289.958 217.063C301.145 249.725 293.141 284.278 271.997 308.585C240.424 302.343 212.947 279.927 201.761 247.297C190.575 214.635 198.578 180.082 219.69 155.806L219.722 155.774Z" fill="#33415C"/>
<path d="M271.872 185.851C279.655 194.71 285.894 205.209 289.958 217.063C301.145 249.725 293.141 284.278 272.029 308.585C245.875 303.415 222.526 287.116 208.945 263.092C224.259 250.923 252.461 224.913 271.903 185.851H271.872Z" fill="#FFFCF2"/>
<path d="M285.767 206.943C287.343 210.221 288.761 213.563 289.958 217.094C301.144 249.756 293.141 284.31 272.029 308.617C253.627 304.991 236.674 295.849 223.471 282.418C238.407 270.627 266.199 245.216 285.799 206.974L285.767 206.943Z" fill="#7D8597"/>
<path d="M147.5 221.004C208.496 221.004 257.944 171.53 257.944 110.502C257.944 49.4733 208.496 0 147.5 0C86.5035 0 37.0562 49.4733 37.0562 110.502C37.0562 171.53 86.5035 221.004 147.5 221.004Z" fill="#7D8597"/>
<path d="M142.584 98.6162C142.584 125.446 120.842 147.231 93.9955 147.231C67.1486 147.231 45.4065 125.477 45.4065 98.6162C45.4065 71.7553 67.1486 50.0017 93.9955 50.0017C120.842 50.0017 142.584 71.7553 142.584 98.6162Z" fill="#FFFCF2"/>
<path d="M132.186 98.6162C132.186 119.708 115.107 136.795 94.027 136.795C72.9465 136.795 55.8679 119.708 55.8679 98.6162C55.8679 77.5247 72.9465 60.4371 94.027 60.4371C115.107 60.4371 132.186 77.5247 132.186 98.6162Z" fill="#E30613"/>
<path d="M118.321 98.6162C118.321 112.047 107.45 122.923 94.0269 122.923C80.6035 122.923 69.7324 112.047 69.7324 98.6162C69.7324 85.1857 80.6035 74.309 94.0269 74.309C107.45 74.309 118.321 85.1857 118.321 98.6162Z" fill="#001233"/>
<path d="M93.3338 92.3108C93.3338 89.7256 95.4134 87.6448 97.9973 87.6448H101.999C103.102 87.6448 104.016 88.5275 104.016 89.6625C104.016 90.7975 103.133 91.6802 101.999 91.6802H97.9973C97.6192 91.6802 97.3356 91.964 97.3356 92.3423V96.3462C97.3356 96.7245 97.6192 97.0083 97.9973 97.0083H99.3207C101.905 97.0083 103.984 99.089 103.984 101.674V105.678C103.984 108.263 101.905 110.344 99.3207 110.344H95.3189C94.216 110.344 93.3022 109.461 93.3022 108.326C93.3022 107.191 94.1845 106.309 95.3189 106.309H99.3207C99.6988 106.309 99.9824 106.025 99.9824 105.647V101.643C99.9824 101.264 99.6988 100.981 99.3207 100.981H97.9973C95.4134 100.981 93.3338 98.8999 93.3338 96.3147V92.3108Z" fill="#FFFCF2"/>
<path d="M89.9937 89.631C89.9937 88.5276 89.1114 87.6133 87.977 87.6133C86.8427 87.6133 85.9604 88.496 85.9604 89.631V105.678C85.9604 106.057 85.6768 106.34 85.2987 106.34H81.9586C80.8557 106.34 79.9419 107.223 79.9419 108.358C79.9419 109.493 80.8242 110.376 81.9586 110.376H85.2987C87.8825 110.376 89.9622 108.295 89.9622 105.71V89.6625L89.9937 89.631Z" fill="#FFFCF2"/>
<path d="M249.562 98.6162C249.562 125.446 227.82 147.231 201.005 147.231C174.189 147.231 152.416 125.477 152.416 98.6162C152.416 71.7553 174.158 50.0017 201.005 50.0017C227.82 50.0017 249.562 71.7553 249.562 98.6162Z" fill="#FFFCF2"/>
<path d="M239.132 98.6162C239.132 119.708 222.053 136.795 200.973 136.795C179.893 136.795 162.814 119.708 162.814 98.6162C162.814 77.5247 179.893 60.4371 200.973 60.4371C222.053 60.4371 239.132 77.5247 239.132 98.6162Z" fill="#E30613"/>
<path d="M225.267 98.6162C225.267 112.047 214.396 122.923 200.973 122.923C187.55 122.923 176.678 112.047 176.678 98.6162C176.678 85.1857 187.55 74.309 200.973 74.309C214.396 74.309 225.267 85.1857 225.267 98.6162Z" fill="#001233"/>
<path d="M200.973 83.2941C194.167 83.2941 194.167 86.0369 194.167 86.0369V91.4911H202.359V92.8468H188.715C188.715 92.8468 184.619 92.2162 184.619 99.6566C184.619 107.097 188.715 106.466 188.715 106.466H192.812V104.259C192.812 100.981 195.49 98.3009 198.767 98.3009H203.21C205.731 98.3009 207.811 97.6073 207.811 95.0536V86.0054C207.811 86.0054 207.811 83.2626 201.005 83.2626L200.973 83.2941ZM196.877 86.0369C197.633 86.0369 198.232 86.636 198.232 87.3926C198.232 88.1492 197.633 88.7483 196.877 88.7483C196.12 88.7483 195.522 88.1492 195.522 87.3926C195.522 86.636 196.12 86.0369 196.877 86.0369ZM209.166 91.4911V95.0852C209.166 98.364 206.487 99.6881 203.21 99.6881H198.767C196.246 99.6881 194.167 101.769 194.167 104.291V111.952C194.167 111.952 194.261 114.695 200.973 114.695C207.685 114.695 207.779 111.952 207.779 111.952V106.498H199.587V105.142H213.231C213.231 105.142 217.327 105.836 217.327 98.3324C217.327 90.829 213.231 91.5226 213.231 91.5226H209.134L209.166 91.4911ZM205.069 109.241C205.826 109.241 206.424 109.84 206.424 110.596C206.424 111.353 205.826 111.952 205.069 111.952C204.313 111.952 203.714 111.353 203.714 110.596C203.714 109.84 204.313 109.241 205.069 109.241Z" fill="#FFFCF2"/>
<path d="M147.342 0C105.528 0 69.1652 23.2353 50.4165 57.5366C98.9425 67.8144 137.165 106.088 147.342 154.671C157.552 106.088 195.742 67.8459 244.3 57.5366C225.551 23.2353 189.157 0 147.342 0Z" fill="#7D8597"/>
<path d="M221.707 28.8157C184.178 44.6107 155.882 78.0922 147.342 118.857C138.772 78.0922 110.507 44.6107 72.9779 28.8157C63.966 37.0442 56.3089 46.7545 50.4165 57.5367C98.9425 67.8145 137.165 106.088 147.342 154.671C157.552 106.088 195.742 67.846 244.3 57.5367C238.407 46.7545 230.75 37.0442 221.738 28.8157H221.707Z" fill="#33415C"/>
<path d="M147.342 90.6399L129.539 111.731L147.342 154.671L165.146 111.731L147.342 90.6399Z" fill="#001233"/>
</g>
<defs>
<clipPath id="clip0_7_34">
<rect width="295" height="338" fill="white"/>
</clipPath>
</defs>
</svg>
