<?xml version="1.0" encoding="utf-8"?>
<!-- Generator: Adobe Illustrator 28.0.0, SVG Export Plug-In . SVG Version: 6.00 Build 0)  -->
<svg version="1.1" id="Camada_1" xmlns="http://www.w3.org/2000/svg" xmlns:xlink="http://www.w3.org/1999/xlink" x="0px" y="0px"
	 viewBox="0 0 750 338" style="enable-background:new 0 0 750 338;" xml:space="preserve">
<style type="text/css">
	.st0{fill:#EFEFEF;}
	.st1{clip-path:url(#SVGID_00000086685516596714127100000016163469728319150495_);}
	.st2{fill:#7D8597;}
	.st3{fill:#001233;}
	.st4{fill:#33415C;}
	.st5{fill:#FFFCF2;}
	.st6{fill:#E30613;}
</style>
<g>
	<g>
		<path class="st0" d="M359.5,103.5V91.7h64.6v11.8H359.5z M385.4,179.9V91.7h12.9v88.2H385.4z"/>
		<path class="st0" d="M463.3,181.1c-5,0-9.7-0.4-14.1-1.2c-4.4-0.8-8.4-2-12.1-3.6l1.6-12.5c4.6,1.9,9,3.4,13.2,4.4
			c4.2,1,8.4,1.5,12.4,1.5c5.8,0,10.1-1,12.9-3c2.8-2,4.2-5.1,4.2-9.3c0-5.3-2.7-9.1-8.1-11.6l-15.3-7c-6-2.7-10.6-6-13.8-9.9
			s-4.8-8.6-4.8-14.3c0-7.7,2.3-13.7,7-17.9s11.2-6.3,19.7-6.3c5.9,0,11.2,0.9,15.7,2.6c4.6,1.7,8.9,4.6,13.2,8.5l-8.7,8.8
			c-3.6-3-7-5.1-10.2-6.5c-3.2-1.3-6.5-2-9.9-2c-4.3,0-7.6,1-9.9,3.1c-2.3,2-3.5,5.1-3.5,9.1c0,2.9,0.8,5.2,2.3,7
			c1.5,1.8,3.8,3.4,6.8,4.8l12.9,6.1c6.5,3.1,11.5,6.5,14.9,10.4c3.4,3.9,5.1,8.8,5.1,14.8c0,8-2.6,14-7.8,18
			C481.7,179.1,473.9,181.1,463.3,181.1z"/>
		<path class="st0" d="M514,103.5V91.7h53.7v11.8H514z M514,179.9v-11.8h53.7v11.8H514z M534.4,179.9V91.7h12.9v88.2H534.4z"/>
		<path class="st0" d="M589.3,179.9l-9.9-88.2h13l7.5,78.3h1.2l8.1-55.9h12.4l-4.2,12.3H615l-6.5,53.5H589.3z M622.3,179.9
			l-6.5-53.5h-2.5l-4-12.3h12.4l8,55.9h1.2l7.5-78.3h13l-9.9,88.2H622.3z"/>
	</g>
</g>
<g>
	<g>
		<path class="st0" d="M327.7,236v-36.8h5.4V236H327.7z M344.2,236l-10.6-28h-2.4v-8.8h3.4l10.6,28h1.3v8.8H344.2z M345.7,236v-36.8
			h5.4V236H345.7z"/>
		<path class="st0" d="M372.9,236.6c-4.7,0-8.3-1.2-10.8-3.7c-2.5-2.5-3.8-6-3.8-10.6c0-4.5,1.1-8,3.2-10.5c2.2-2.5,5.2-3.7,9.2-3.7
			c3.7,0,6.6,1.1,8.6,3.4c2,2.2,3,5.5,3,9.8c0,1.3-0.1,2.4-0.2,3.5h-19.3v-4.2h14.5c0-2.5-0.6-4.4-1.8-5.7c-1.2-1.3-2.8-2-4.9-2
			c-2.3,0-4.1,0.8-5.4,2.4c-1.3,1.6-1.9,3.8-1.9,6.7c0,3.2,0.9,5.6,2.7,7.3s4.3,2.5,7.6,2.5c1.1,0,2.3-0.1,3.4-0.2
			c1.1-0.1,2.2-0.3,3.4-0.5l0.7,4.8c-1.6,0.3-3.1,0.5-4.5,0.6C375.1,236.5,373.9,236.6,372.9,236.6z"/>
		<path class="st0" d="M388.2,236v-4.8h18.4v4.8H388.2z M389.2,213.4v-4.8h9.2l0.5,4.8H389.2z M394.3,236v-27.5h4.5l1,7.9V236H394.3
			z M399.8,224.2l-1.6-8.6h2.1c0.3-5,2.8-7.6,7.6-7.6c2.8,0,4.9,0.8,6.2,2.4c1.3,1.6,1.9,4.2,1.9,7.9h-5.4c0-2-0.3-3.4-0.9-4.3
			s-1.6-1.3-2.9-1.3c-2.3,0-4.1,1-5.2,3C400.3,217.7,399.8,220.5,399.8,224.2z"/>
		<path class="st0" d="M429.1,236l-9.8-27.5h5.9l7.4,22.8h0.5l7.4-22.8h5.9l-9.8,27.5H429.1z"/>
		<path class="st0" d="M466.2,236.6c-4.7,0-8.3-1.2-10.8-3.7c-2.5-2.5-3.8-6-3.8-10.6c0-4.5,1.1-8,3.2-10.5c2.2-2.5,5.2-3.7,9.2-3.7
			c3.7,0,6.6,1.1,8.6,3.4c2,2.2,3,5.5,3,9.8c0,1.3-0.1,2.4-0.2,3.5h-19.3v-4.2h14.5c0-2.5-0.6-4.4-1.8-5.7c-1.2-1.3-2.8-2-4.9-2
			c-2.3,0-4.1,0.8-5.4,2.4c-1.3,1.6-1.9,3.8-1.9,6.7c0,3.2,0.9,5.6,2.7,7.3s4.3,2.5,7.6,2.5c1.1,0,2.3-0.1,3.4-0.2
			c1.1-0.1,2.2-0.3,3.4-0.5l0.7,4.8c-1.6,0.3-3.1,0.5-4.5,0.6C468.5,236.5,467.3,236.6,466.2,236.6z"/>
		<path class="st0" d="M529.9,236.6c-11.4,0-17.2-6.3-17.2-19c0-6,1.4-10.6,4.3-13.9c2.9-3.3,7-4.9,12.2-4.9c2.5,0,4.8,0.4,6.6,1.2
			c1.9,0.8,3.3,1.9,4.1,3.4l-3.8,3.8c-0.8-1.2-1.8-2.1-3-2.7c-1.2-0.6-2.5-1-3.9-1c-3.3,0-6,1.2-8,3.6c-2,2.4-3,5.8-3,10.2
			c0,9.6,4.2,14.5,12.5,14.5c2.5,0,5-0.5,7.4-1.6l1.2,4.6C536.4,236,533.2,236.6,529.9,236.6z"/>
		<path class="st0" d="M559.5,236.6c-4.7,0-8.3-1.2-10.8-3.7c-2.5-2.5-3.8-6-3.8-10.6c0-4.5,1.1-8,3.2-10.5c2.2-2.5,5.2-3.7,9.2-3.7
			c3.7,0,6.6,1.1,8.6,3.4c2,2.2,3,5.5,3,9.8c0,1.3-0.1,2.4-0.2,3.5h-19.3v-4.2H564c0-2.5-0.6-4.4-1.8-5.7c-1.2-1.3-2.8-2-4.9-2
			c-2.3,0-4.1,0.8-5.4,2.4c-1.3,1.6-1.9,3.8-1.9,6.7c0,3.2,0.9,5.6,2.7,7.3s4.3,2.5,7.6,2.5c1.1,0,2.3-0.1,3.4-0.2
			c1.1-0.1,2.2-0.3,3.4-0.5l0.7,4.8c-1.6,0.3-3.1,0.5-4.5,0.6C561.8,236.5,560.6,236.6,559.5,236.6z"/>
		<path class="st0" d="M577.1,236v-27.5h5l0.5,5.8V236H577.1z M594,236v-17.9c0-1.7-0.4-2.9-1.3-3.8c-0.9-0.9-2.1-1.3-3.6-1.3
			c-4.3,0-6.5,2.5-6.5,7.6l-1.6-7.1h2.1c0.2-1.8,0.8-3.2,2-4.1c1.2-0.9,2.9-1.4,5.2-1.4c2.9,0,5.2,0.9,6.7,2.6
			c1.6,1.8,2.4,4.3,2.4,7.5V236H594z"/>
		<path class="st0" d="M605.6,213.4v-4.8h24.9v4.8H605.6z M612.5,223.1v-22.8h5.5v22.8H612.5z M624.4,236.6c-4.2,0-7.2-0.9-9-2.6
			c-1.9-1.7-2.8-4.5-2.8-8.3V221h5.5v4.4c0,2.2,0.5,3.8,1.6,4.7c1.1,1,2.8,1.5,5.2,1.5c0.9,0,1.8,0,2.7-0.1c1-0.1,2.1-0.2,3.3-0.4
			l0.6,4.8c-1.2,0.2-2.4,0.4-3.5,0.5C626.9,236.5,625.7,236.6,624.4,236.6z"/>
		<path class="st0" d="M652.9,236.6c-4.7,0-8.3-1.2-10.8-3.7c-2.5-2.5-3.8-6-3.8-10.6c0-4.5,1.1-8,3.2-10.5c2.2-2.5,5.2-3.7,9.2-3.7
			c3.7,0,6.6,1.1,8.6,3.4c2,2.2,3,5.5,3,9.8c0,1.3-0.1,2.4-0.2,3.5h-19.3v-4.2h14.5c0-2.5-0.6-4.4-1.8-5.7c-1.2-1.3-2.8-2-4.9-2
			c-2.3,0-4.1,0.8-5.4,2.4c-1.3,1.6-1.9,3.8-1.9,6.7c0,3.2,0.9,5.6,2.7,7.3s4.3,2.5,7.6,2.5c1.1,0,2.3-0.1,3.4-0.2
			c1.1-0.1,2.2-0.3,3.4-0.5l0.7,4.8c-1.6,0.3-3.1,0.5-4.5,0.6C655.1,236.5,653.9,236.6,652.9,236.6z"/>
		<path class="st0" d="M668.1,236v-4.8h18.4v4.8H668.1z M669.1,213.4v-4.8h9.2l0.5,4.8H669.1z M674.2,236v-27.5h4.5l1,7.9V236H674.2
			z M679.7,224.2l-1.6-8.6h2.1c0.3-5,2.8-7.6,7.6-7.6c2.8,0,4.9,0.8,6.2,2.4c1.3,1.6,1.9,4.2,1.9,7.9h-5.4c0-2-0.3-3.4-0.9-4.3
			s-1.6-1.3-2.9-1.3c-2.3,0-4.1,1-5.2,3C680.3,217.7,679.7,220.5,679.7,224.2z"/>
	</g>
</g>
<g>
	<defs>
		<rect id="SVGID_1_" y="0" width="295" height="338"/>
	</defs>
	<clipPath id="SVGID_00000003792811278670698500000017356009022486873746_">
		<use xlink:href="#SVGID_1_"  style="overflow:visible;"/>
	</clipPath>
	<g style="clip-path:url(#SVGID_00000003792811278670698500000017356009022486873746_);">
		<path class="st2" d="M243.5,283.7c0,30-24.3,54.3-54.3,54.3h-83.5c-30,0-54.3-24.3-54.3-54.3V131.6c0-30,24.3-54.3,54.3-54.3h83.5
			c30,0,54.3,24.3,54.3,54.3V283.7z"/>
		<path class="st3" d="M222.1,134.3H72.6c-7.3,0-14.4,1-21.1,2.9v146.4c0,1.8,0.1,3.6,0.3,5.3c6.6,1.8,13.6,2.8,20.9,2.8
			c34.9,0,64.4-22.7,74.7-54.1c10.3,31.4,39.9,54.1,74.7,54.1c7.3,0,14.4-1,21.2-2.9c0.2-1.7,0.3-3.5,0.3-5.2V137.3
			C236.7,135.4,229.5,134.3,222.1,134.3z"/>
		<path class="st4" d="M75.3,155.8C43.7,162,16.2,184.4,5,217.1S1.9,284.3,23,308.6c31.6-6.2,59.1-28.7,70.2-61.3
			C104.4,214.6,96.4,180.1,75.3,155.8L75.3,155.8z"/>
		<path class="st5" d="M23.1,185.9c-7.8,8.9-14,19.4-18.1,31.2c-11.2,32.7-3.2,67.2,17.9,91.5c26.2-5.2,49.5-21.5,63.1-45.5
			C70.7,250.9,42.5,224.9,23.1,185.9L23.1,185.9z"/>
		<path class="st2" d="M9.2,206.9c-1.6,3.3-3,6.6-4.2,10.2c-11.2,32.7-3.2,67.2,17.9,91.5c18.4-3.6,35.4-12.8,48.6-26.2
			C56.6,270.6,28.8,245.2,9.2,206.9L9.2,206.9z"/>
		<path class="st4" d="M219.7,155.8c31.6,6.2,59.1,28.6,70.2,61.3c11.2,32.7,3.2,67.2-18,91.5c-31.6-6.2-59.1-28.7-70.2-61.3
			C190.6,214.6,198.6,180.1,219.7,155.8L219.7,155.8z"/>
		<path class="st5" d="M271.9,185.9c7.8,8.9,14,19.4,18.1,31.2c11.2,32.7,3.2,67.2-17.9,91.5c-26.2-5.2-49.5-21.5-63.1-45.5
			C224.3,250.9,252.5,224.9,271.9,185.9L271.9,185.9z"/>
		<path class="st2" d="M285.8,206.9c1.6,3.3,3,6.6,4.2,10.2c11.2,32.7,3.2,67.2-17.9,91.5c-18.4-3.6-35.4-12.8-48.6-26.2
			C238.4,270.6,266.2,245.2,285.8,206.9L285.8,206.9z"/>
		<path class="st2" d="M147.5,221c61,0,110.4-49.5,110.4-110.5C257.9,49.5,208.5,0,147.5,0C86.5,0,37.1,49.5,37.1,110.5
			C37.1,171.5,86.5,221,147.5,221z"/>
		<path class="st5" d="M142.6,98.6c0,26.8-21.7,48.6-48.6,48.6c-26.8,0-48.6-21.8-48.6-48.6C45.4,71.8,67.1,50,94,50
			C120.8,50,142.6,71.8,142.6,98.6z"/>
		<path class="st6" d="M132.2,98.6c0,21.1-17.1,38.2-38.2,38.2c-21.1,0-38.2-17.1-38.2-38.2c0-21.1,17.1-38.2,38.2-38.2
			C115.1,60.4,132.2,77.5,132.2,98.6z"/>
		<path class="st3" d="M118.3,98.6c0,13.4-10.9,24.3-24.3,24.3c-13.4,0-24.3-10.9-24.3-24.3c0-13.4,10.9-24.3,24.3-24.3
			C107.4,74.3,118.3,85.2,118.3,98.6z"/>
		<path class="st5" d="M93.3,92.3c0-2.6,2.1-4.7,4.7-4.7h4c1.1,0,2,0.9,2,2s-0.9,2-2,2h-4c-0.4,0-0.7,0.3-0.7,0.7v4
			c0,0.4,0.3,0.7,0.7,0.7h1.3c2.6,0,4.7,2.1,4.7,4.7v4c0,2.6-2.1,4.7-4.7,4.7h-4c-1.1,0-2-0.9-2-2c0-1.1,0.9-2,2-2h4
			c0.4,0,0.7-0.3,0.7-0.7v-4c0-0.4-0.3-0.7-0.7-0.7H98c-2.6,0-4.7-2.1-4.7-4.7V92.3z"/>
		<path class="st5" d="M90,89.6c0-1.1-0.9-2-2-2c-1.1,0-2,0.9-2,2v16c0,0.4-0.3,0.7-0.7,0.7H82c-1.1,0-2,0.9-2,2c0,1.1,0.9,2,2,2
			h3.3c2.6,0,4.7-2.1,4.7-4.7L90,89.6L90,89.6z"/>
		<path class="st5" d="M249.6,98.6c0,26.8-21.7,48.6-48.6,48.6c-26.8,0-48.6-21.8-48.6-48.6c0-26.9,21.7-48.6,48.6-48.6
			C227.8,50,249.6,71.8,249.6,98.6z"/>
		<path class="st6" d="M239.1,98.6c0,21.1-17.1,38.2-38.2,38.2s-38.2-17.1-38.2-38.2c0-21.1,17.1-38.2,38.2-38.2
			S239.1,77.5,239.1,98.6z"/>
		<path class="st3" d="M225.3,98.6c0,13.4-10.9,24.3-24.3,24.3c-13.4,0-24.3-10.9-24.3-24.3c0-13.4,10.9-24.3,24.3-24.3
			C214.4,74.3,225.3,85.2,225.3,98.6z"/>
		<path class="st5" d="M201,83.3c-6.8,0-6.8,2.7-6.8,2.7v5.5h8.2v1.4h-13.6c0,0-4.1-0.6-4.1,6.8s4.1,6.8,4.1,6.8h4.1v-2.2
			c0-3.3,2.7-6,6-6h4.4c2.5,0,4.6-0.7,4.6-3.2v-9C207.8,86,207.8,83.3,201,83.3L201,83.3z M196.9,86c0.8,0,1.4,0.6,1.4,1.4
			s-0.6,1.4-1.4,1.4c-0.8,0-1.4-0.6-1.4-1.4S196.1,86,196.9,86z M209.2,91.5v3.6c0,3.3-2.7,4.6-6,4.6h-4.4c-2.5,0-4.6,2.1-4.6,4.6
			v7.7c0,0,0.1,2.7,6.8,2.7c6.7,0,6.8-2.7,6.8-2.7v-5.5h-8.2v-1.4h13.6c0,0,4.1,0.7,4.1-6.8c0-7.5-4.1-6.8-4.1-6.8L209.2,91.5
			L209.2,91.5z M205.1,109.2c0.8,0,1.4,0.6,1.4,1.4c0,0.8-0.6,1.4-1.4,1.4c-0.8,0-1.4-0.6-1.4-1.4
			C203.7,109.8,204.3,109.2,205.1,109.2z"/>
		<path class="st2" d="M147.3,0c-41.8,0-78.2,23.2-96.9,57.5c48.5,10.3,86.7,48.6,96.9,97.1c10.2-48.6,48.4-86.8,97-97.1
			C225.6,23.2,189.2,0,147.3,0z"/>
		<path class="st4" d="M221.7,28.8c-37.5,15.8-65.8,49.3-74.4,90c-8.6-40.8-36.8-74.2-74.4-90C64,37,56.3,46.8,50.4,57.5
			c48.5,10.3,86.7,48.6,96.9,97.1c10.2-48.6,48.4-86.8,97-97.1C238.4,46.8,230.8,37,221.7,28.8L221.7,28.8z"/>
		<path class="st3" d="M147.3,90.6l-17.8,21.1l17.8,42.9l17.8-42.9L147.3,90.6z"/>
	</g>
</g>
</svg>
